<svg width="16" height="16" viewBox="0 0 16 16" fill="none" xmlns="http://www.w3.org/2000/svg">
<path d="M10.9474 9.33333C11.3123 9.33333 11.614 9.20741 11.8526 8.95556C12.0912 8.7037 12.2105 8.38519 12.2105 8C12.2105 7.61481 12.0912 7.2963 11.8526 7.04444C11.614 6.79259 11.3123 6.66667 10.9474 6.66667C10.5825 6.66667 10.2807 6.79259 10.0421 7.04444C9.80351 7.2963 9.68421 7.61481 9.68421 8C9.68421 8.38519 9.80351 8.7037 10.0421 8.95556C10.2807 9.20741 10.5825 9.33333 10.9474 9.33333ZM1.68421 16C1.22105 16 0.824421 15.8261 0.494316 15.4782C0.164772 15.1298 0 14.7111 0 14.2222V1.77778C0 1.28889 0.164772 0.870222 0.494316 0.521778C0.824421 0.173926 1.22105 0 1.68421 0H13.4737C13.9368 0 14.3335 0.173926 14.6636 0.521778C14.9931 0.870222 15.1579 1.28889 15.1579 1.77778V4H13.4737V1.77778H1.68421V14.2222H13.4737V12H15.1579V14.2222C15.1579 14.7111 14.9931 15.1298 14.6636 15.4782C14.3335 15.8261 13.9368 16 13.4737 16H1.68421ZM8.42105 12.4444C7.95789 12.4444 7.56154 12.2705 7.232 11.9227C6.9019 11.5742 6.73684 11.1556 6.73684 10.6667V5.33333C6.73684 4.84444 6.9019 4.42578 7.232 4.07733C7.56154 3.72948 7.95789 3.55556 8.42105 3.55556H14.3158C14.7789 3.55556 15.1756 3.72948 15.5057 4.07733C15.8352 4.42578 16 4.84444 16 5.33333V10.6667C16 11.1556 15.8352 11.5742 15.5057 11.9227C15.1756 12.2705 14.7789 12.4444 14.3158 12.4444H8.42105ZM14.3158 10.6667V5.33333H8.42105V10.6667H14.3158Z" fill="white"/>
</svg>
