<svg width="47" height="15" viewBox="0 0 47 15" fill="none" xmlns="http://www.w3.org/2000/svg">
<path d="M39.6418 0.939658C39.3584 1.46972 37.9152 4.16724 36.4352 6.93823C34.908 9.7932 33.7482 12.0236 33.7534 12.0814C33.7692 12.1811 33.8164 12.1863 34.845 12.1968C35.4381 12.2073 35.9471 12.1968 35.9786 12.1706C36.0101 12.1496 36.939 10.4072 38.0464 8.30274C39.1537 6.193 40.0931 4.42964 40.1351 4.37716C40.1771 4.32993 40.2558 4.28794 40.3031 4.28794C40.3503 4.28794 40.429 4.32993 40.471 4.37716C40.513 4.42964 41.4419 6.17201 42.5335 8.25026C43.6251 10.3285 44.554 12.0709 44.596 12.1234C44.6695 12.2073 44.7797 12.2126 45.7558 12.2021L46.8369 12.1863V12.0551C46.8369 11.9397 45.8503 10.0713 41.4524 1.84758C40.2033 -0.477329 40.3608 -0.403855 39.6418 0.939658Z" fill="#969292"/>
<path d="M0.120706 1.77119L0 1.81843V7.84849C0 12.4616 0.0157443 13.8891 0.0629772 13.9363C0.146947 14.0203 6.31871 14.0255 7.00621 13.9415C8.08207 13.8103 8.88503 13.464 9.47807 12.8709C10.1078 12.2464 10.3912 11.4802 10.3912 10.3991C10.3912 9.66434 10.3335 9.3652 10.0763 8.82989C9.82969 8.31558 9.37835 7.838 8.89028 7.58609C8.58064 7.42865 8.47568 7.33418 8.60688 7.33418C8.72234 7.33418 9.33637 6.68866 9.48331 6.40527C9.95564 5.51834 9.97139 4.45297 9.53055 3.5398C9.12119 2.70011 8.30774 2.09133 7.24762 1.83942C6.95373 1.76595 6.39743 1.7502 3.56871 1.73971C1.56918 1.72921 0.188932 1.73971 0.120706 1.77119ZM6.84352 3.65526C7.47854 3.90717 7.77243 4.32177 7.80917 5.00402C7.85115 5.765 7.58875 6.23733 6.96947 6.52597L6.63884 6.67817L4.38216 6.69391C2.28817 6.70966 2.12548 6.70441 2.0625 6.62044C2.01002 6.55221 1.99428 6.17435 1.99428 5.10899C1.99428 3.84944 2.00477 3.68675 2.08349 3.59753C2.16746 3.50307 2.27243 3.49782 4.35592 3.51356C6.50239 3.52931 6.53913 3.53456 6.84352 3.65526ZM6.69657 8.54649C7.51528 8.6567 8.00335 8.96109 8.24476 9.50165C8.34972 9.73256 8.36547 9.86376 8.37072 10.3256C8.37072 10.63 8.33923 10.9764 8.30249 11.0971C8.20278 11.4329 7.93512 11.7478 7.60974 11.9158C7.06919 12.1887 6.79629 12.2149 4.34543 12.2149C2.18321 12.2149 2.09924 12.2097 2.04676 12.1152C2.01527 12.047 1.99428 11.3962 1.99428 10.3466C1.99428 8.87187 2.00477 8.6672 2.08349 8.58323C2.16222 8.49401 2.29867 8.48876 4.22997 8.48876C5.41604 8.48876 6.46041 8.515 6.69657 8.54649Z" fill="#969292"/>
<path d="M12.505 1.79652L12.3843 1.88049V7.85808C12.3843 13.3109 12.3895 13.8409 12.4682 13.9196C12.547 13.9984 12.8724 14.0036 16.0265 13.9826C19.6791 13.9616 19.7526 13.9564 20.4926 13.7097C21.6892 13.3109 22.4291 12.5341 22.7073 11.3796C22.8175 10.9387 22.828 9.8786 22.7283 9.48499C22.5289 8.66104 21.9358 7.88957 21.2693 7.56943C21.0856 7.48022 20.9387 7.39625 20.9387 7.37525C20.9387 7.35426 20.9859 7.32277 21.0489 7.30703C21.2326 7.24405 21.7469 6.693 21.9253 6.35712C22.3609 5.52792 22.3609 4.42057 21.9253 3.50741C21.6944 3.01408 21.0961 2.4263 20.5713 2.17439C20.3561 2.06418 19.9888 1.92773 19.7579 1.86475C19.3485 1.75454 19.2435 1.74929 15.9792 1.73355C12.9616 1.71255 12.6099 1.72305 12.505 1.79652ZM19.233 3.6491C19.6529 3.80655 19.8838 4.00597 20.0675 4.3576C20.1934 4.59901 20.2197 4.72496 20.2249 5.0346C20.2302 5.6014 20.1305 5.89004 19.8103 6.21018C19.3433 6.67726 19.3433 6.67726 16.714 6.67726H14.4573L14.4415 5.16056C14.431 4.05321 14.4468 3.62811 14.494 3.57038C14.5465 3.50741 14.8929 3.49691 16.735 3.51265C18.8499 3.5284 18.9287 3.53365 19.233 3.6491ZM19.4692 8.60331C20.141 8.78175 20.5451 9.12812 20.7025 9.65818C20.8075 10.015 20.8022 10.7655 20.692 11.1067C20.5136 11.663 19.9993 12.0356 19.2593 12.1563C18.7555 12.2402 14.578 12.235 14.494 12.151C14.3995 12.0566 14.4048 8.64005 14.4993 8.54558C14.599 8.44587 19.0704 8.4931 19.4692 8.60331Z" fill="#969292"/>
<path d="M23.006 1.79734C22.9063 1.87081 22.9115 1.87606 23.0532 2.14896C23.1319 2.30115 24.5857 5.01967 26.2808 8.18952C28.8576 13.0125 29.3824 13.9572 29.4874 13.9834C29.5766 14.0044 29.6343 13.9887 29.6816 13.9257C29.797 13.763 36.1052 1.94428 36.1052 1.88655C36.1052 1.7501 35.8691 1.71861 34.9349 1.71861C34.09 1.71861 33.9535 1.72911 33.8538 1.80783C33.7961 1.86031 32.8514 3.60793 31.7546 5.69667C30.6577 7.78542 29.734 9.52254 29.7026 9.56452C29.6238 9.65899 29.4192 9.66424 29.3457 9.57502C29.3142 9.53828 28.3905 7.79591 27.2937 5.70717C26.1916 3.61318 25.2417 1.86031 25.1839 1.80783C25.0842 1.72911 24.9478 1.71861 24.0923 1.71861C23.3156 1.71861 23.0899 1.73436 23.006 1.79734Z" fill="#969292"/>
</svg>
