<svg width="80" height="80" viewBox="0 0 80 80" fill="none" xmlns="http://www.w3.org/2000/svg">
<path d="M40 80C34.4667 80 29.2667 78.9493 24.4 76.848C19.5333 74.7493 15.3 71.9 11.7 68.3C8.1 64.7 5.25067 60.4667 3.152 55.6C1.05067 50.7333 0 45.5333 0 40C0 34.4667 1.05067 29.2667 3.152 24.4C5.25067 19.5333 8.1 15.3 11.7 11.7C15.3 8.1 19.5333 5.24933 24.4 3.148C29.2667 1.04933 34.4667 0 40 0C44.3333 0 48.4333 0.633333 52.3 1.9C56.1667 3.16667 59.7333 4.93333 63 7.2L57.2 13.1C54.6667 11.5 51.9667 10.2493 49.1 9.348C46.2333 8.44933 43.2 8 40 8C31.1333 8 23.584 11.116 17.352 17.348C11.1173 23.5827 8 31.1333 8 40C8 48.8667 11.1173 56.4173 17.352 62.652C23.584 68.884 31.1333 72 40 72C48.8667 72 56.4173 68.884 62.652 62.652C68.884 56.4173 72 48.8667 72 40C72 38.8 71.9333 37.6 71.8 36.4C71.6667 35.2 71.4667 34.0333 71.2 32.9L77.7 26.4C78.4333 28.5333 79 30.7333 79.4 33C79.8 35.2667 80 37.6 80 40C80 45.5333 78.9493 50.7333 76.848 55.6C74.7493 60.4667 71.9 64.7 68.3 68.3C64.7 71.9 60.4667 74.7493 55.6 76.848C50.7333 78.9493 45.5333 80 40 80ZM34.4 58.4L17.4 41.4L23 35.8L34.4 47.2L74.4 7.1L80 12.7L34.4 58.4Z" fill="#1FB81F"/>
</svg>
