<svg width="13" height="16" viewBox="0 0 13 16" fill="none" xmlns="http://www.w3.org/2000/svg">
<path d="M1.75 15.499C1.3375 15.499 0.98425 15.3523 0.69025 15.0588C0.39675 14.7648 0.25 14.4115 0.25 13.999V3.49902H1.75V13.999H10V15.499H1.75ZM4.75 12.499C4.3375 12.499 3.9845 12.3523 3.691 12.0588C3.397 11.7648 3.25 11.4115 3.25 10.999V1.99902C3.25 1.58652 3.397 1.23327 3.691 0.939273C3.9845 0.645773 4.3375 0.499023 4.75 0.499023H11.5C11.9125 0.499023 12.2658 0.645773 12.5598 0.939273C12.8533 1.23327 13 1.58652 13 1.99902V10.999C13 11.4115 12.8533 11.7648 12.5598 12.0588C12.2658 12.3523 11.9125 12.499 11.5 12.499H4.75ZM4.75 10.999H11.5V1.99902H4.75V10.999Z" fill="#706666"/>
</svg>
