<svg width="28" height="28" viewBox="0 0 28 28" fill="none" xmlns="http://www.w3.org/2000/svg">
<path d="M11.9583 11.3386C12.5139 11.3386 12.9859 11.144 13.3743 10.7546C13.7637 10.3662 13.9583 9.89418 13.9583 9.33863C13.9583 8.78307 13.7637 8.31107 13.3743 7.92263C12.9859 7.53329 12.5139 7.33863 11.9583 7.33863C11.4028 7.33863 10.9308 7.53329 10.5423 7.92263C10.153 8.31107 9.95833 8.78307 9.95833 9.33863C9.95833 9.89418 10.153 10.3662 10.5423 10.7546C10.9308 11.144 11.4028 11.3386 11.9583 11.3386ZM9.29167 18.0053C9.84722 18.0053 10.3192 17.8106 10.7077 17.4213C11.097 17.0329 11.2917 16.5608 11.2917 16.0053C11.2917 15.4497 11.097 14.9777 10.7077 14.5893C10.3192 14.2 9.84722 14.0053 9.29167 14.0053C8.73611 14.0053 8.26411 14.2 7.87567 14.5893C7.48633 14.9777 7.29167 15.4497 7.29167 16.0053C7.29167 16.5608 7.48633 17.0329 7.87567 17.4213C8.26411 17.8106 8.73611 18.0053 9.29167 18.0053ZM17.9583 19.3386C18.3361 19.3386 18.653 19.2106 18.909 18.9546C19.1641 18.6995 19.2917 18.3831 19.2917 18.0053C19.2917 17.6275 19.1641 17.3106 18.909 17.0546C18.653 16.7995 18.3361 16.672 17.9583 16.672C17.5806 16.672 17.2641 16.7995 17.009 17.0546C16.753 17.3106 16.625 17.6275 16.625 18.0053C16.625 18.3831 16.753 18.6995 17.009 18.9546C17.2641 19.2106 17.5806 19.3386 17.9583 19.3386ZM13.9583 27.3386C12.1139 27.3386 10.3806 26.9884 8.75833 26.288C7.13611 25.5884 5.725 24.6386 4.525 23.4386C3.325 22.2386 2.37522 20.8275 1.67567 19.2053C0.975222 17.5831 0.625 15.8497 0.625 14.0053C0.625 12.1386 1.025 10.3164 1.825 8.53863C2.625 6.76085 3.74189 5.22752 5.17567 3.93863C6.60856 2.64974 8.30856 1.70529 10.2757 1.10529C12.2419 0.505293 14.3917 0.449738 16.725 0.938627C16.525 1.93863 16.5917 2.87729 16.925 3.75463C17.2583 4.63285 17.7583 5.37196 18.425 5.97196C19.0917 6.57196 19.8806 6.98307 20.7917 7.20529C21.7028 7.42752 22.6583 7.37196 23.6583 7.03863C22.9694 8.57196 23.0917 9.88307 24.025 10.972C24.9583 12.0609 26.025 12.6275 27.225 12.672C27.425 14.6497 27.2139 16.5275 26.5917 18.3053C25.9694 20.0831 25.053 21.6386 23.8423 22.972C22.6308 24.3053 21.1752 25.3666 19.4757 26.156C17.7752 26.9444 15.9361 27.3386 13.9583 27.3386ZM13.9583 24.672C16.6694 24.672 19.0752 23.7386 21.1757 21.872C23.2752 20.0053 24.425 17.6275 24.625 14.7386C23.5139 14.2497 22.6419 13.5831 22.009 12.7386C21.3752 11.8942 20.9472 10.9497 20.725 9.90529C19.0139 9.66085 17.5472 8.92752 16.325 7.70529C15.1028 6.48307 14.3472 5.0164 14.0583 3.30529C12.2806 3.26085 10.7192 3.58307 9.37433 4.27196C8.03033 4.96085 6.90856 5.84396 6.009 6.92129C5.10856 7.99952 4.43078 9.17196 3.97567 10.4386C3.51967 11.7053 3.29167 12.8942 3.29167 14.0053C3.29167 16.9608 4.33078 19.4777 6.409 21.556C8.48633 23.6333 11.0028 24.672 13.9583 24.672Z" fill="#353C46"/>
</svg>
