<svg width="14" height="14" viewBox="0 0 14 14" fill="none" xmlns="http://www.w3.org/2000/svg">
<path d="M1.85938 12.2501H2.79688L9.73438 5.31265L8.81563 4.37515L1.85938 11.3314V12.2501ZM12.1344 4.48765L9.60313 1.97515L10.5781 1.00015C10.8031 0.787646 11.0751 0.681396 11.3941 0.681396C11.7126 0.681396 11.9781 0.787646 12.1906 1.00015L13.1094 1.9189C13.3219 2.1439 13.4344 2.4094 13.4469 2.7154C13.4594 3.0219 13.3531 3.2814 13.1281 3.4939L12.1344 4.48765ZM11.3281 5.31265L3.26563 13.3751H0.734375V10.8439L8.79688 2.7814L11.3281 5.31265ZM9.26563 4.8439L8.81563 4.37515L9.73438 5.31265L9.26563 4.8439Z" fill="#626263"/>
</svg>
