<svg width="20" height="17" viewBox="0 0 20 17" fill="none" xmlns="http://www.w3.org/2000/svg">
<path d="M2 16.7365C1.45 16.7365 0.979333 16.541 0.588 16.15C0.196 15.7583 0 15.2877 0 14.7382V2.74831C0 2.19877 0.196 1.7285 0.588 1.3375C0.979333 0.945834 1.45 0.75 2 0.75H18C18.55 0.75 19.021 0.945834 19.413 1.3375C19.8043 1.7285 20 2.19877 20 2.74831V14.7382C20 15.2877 19.8043 15.7583 19.413 16.15C19.021 16.541 18.55 16.7365 18 16.7365H2ZM10 9.74238L2 4.74661V14.7382H18V4.74661L10 9.74238ZM10 7.74408L18 2.74831H2L10 7.74408ZM2 4.74661V2.74831V14.7382V4.74661Z" fill="#295BB7"/>
</svg>
