<svg width="52" height="14" viewBox="0 0 52 14" fill="none" xmlns="http://www.w3.org/2000/svg">
<path d="M8.31726 1.39037C9.0756 2.15931 10.64 3.73431 11.7907 4.89037L13.8854 7.00098L12.7983 8.0987C12.1991 8.70855 10.6453 10.2729 9.35135 11.5775C8.05211 12.8873 6.9809 13.9639 6.97029 13.9798C6.95969 13.9904 10.0726 14.001 13.8907 14.001H20.8324L18.287 11.4396C16.887 10.0343 15.3279 8.45931 14.8188 7.94492L13.8907 7.00628L17.3536 3.50628L20.8165 0.000976562H13.8801H6.93848L8.31726 1.39037Z" fill="#969292"/>
<path d="M3.43636 3.53392L0 7.01271L1.24091 8.26422C1.925 8.95362 3.47879 10.5233 4.69848 11.7483L6.90984 13.9756V7.01271C6.90984 3.18923 6.90454 0.0551357 6.89394 0.0551357C6.88333 0.0551357 5.32954 1.61953 3.43636 3.53392Z" fill="#969292"/>
<path d="M20.855 7.0074L20.8603 13.9756L24.3019 10.5021C26.1951 8.59301 27.7383 7.01271 27.733 6.9968C27.7277 6.97559 26.1792 5.40589 24.2913 3.5021L20.855 0.0392208V7.0074Z" fill="#969292"/>
<path d="M37.5877 4.06755C36.8665 4.22134 36.3362 4.61907 36.1612 5.13346C36.0445 5.46755 36.0552 6.01907 36.1771 6.28952C36.4052 6.78801 36.8612 7.06907 38.0597 7.42437C39.1786 7.75846 39.3642 7.88043 39.3642 8.29407C39.3642 8.78195 38.9294 9.09483 38.2453 9.09483C37.8953 9.09483 37.8158 9.07361 37.6249 8.95164C37.3862 8.79255 37.2695 8.61225 37.2165 8.30998L37.1794 8.11377H36.543H35.9014L35.9385 8.38952C35.9915 8.81907 36.2673 9.31755 36.5802 9.55619C37.0044 9.87968 37.4552 9.99634 38.2771 9.99104C39.062 9.98574 39.4438 9.89028 39.937 9.5668C40.7802 9.01528 40.9499 7.8327 40.2764 7.20164C39.9635 6.90998 39.6347 6.75089 38.7279 6.46982C37.6195 6.11982 37.3491 5.95013 37.3491 5.60543C37.3491 5.21831 37.6779 4.91073 38.1552 4.8471C38.6536 4.77816 39.0885 5.0274 39.2052 5.45164L39.2635 5.67437H39.9052H40.5415L40.5044 5.41982C40.4195 4.84179 40.0961 4.40164 39.5976 4.18422C39.0991 3.9721 38.2559 3.92437 37.5877 4.06755Z" fill="#969292"/>
<path d="M48.6494 4.05759C47.6736 4.28032 46.9842 4.96971 46.7085 5.9932C46.5865 6.43335 46.5494 7.18638 46.6236 7.69017C46.841 9.16441 47.663 9.92805 49.1213 10.0076C50.4948 10.0818 51.4653 9.47199 51.6933 8.39017L51.7304 8.22047H51.0729H50.4153L50.3516 8.40078C50.1873 8.84623 49.8426 9.06896 49.3229 9.06896C48.4479 9.06365 47.9653 8.4379 47.9176 7.23941C47.8539 5.8129 48.4213 4.92729 49.3918 4.93259C49.8532 4.9379 50.2191 5.20835 50.3251 5.62199L50.3729 5.80759L51.0304 5.8235L51.6827 5.83941L51.6509 5.56365C51.566 4.86896 51.0888 4.35456 50.2933 4.10532C49.9327 3.98865 49.0577 3.96214 48.6494 4.05759Z" fill="#969292"/>
<path d="M41.3257 7.00772V9.92969L42.8795 9.90848C44.2901 9.88726 44.4598 9.87666 44.7727 9.7706C45.637 9.48423 46.056 8.91681 45.9764 8.13726C45.9181 7.58575 45.5893 7.19863 44.9848 6.9812L44.656 6.85923L44.9105 6.76378C46.0348 6.33423 46.0613 4.85999 44.9583 4.30847C44.5923 4.12817 44.1787 4.08575 42.7204 4.08575H41.3257V7.00772ZM44.0408 5.0562C44.6242 5.30544 44.6719 6.09029 44.1151 6.37666C43.9295 6.47211 43.8022 6.49332 43.2348 6.49332L42.5719 6.49863L42.556 5.78802C42.5507 5.3956 42.556 5.03499 42.5719 4.99257C42.5984 4.92893 42.7098 4.92363 43.2295 4.95014C43.5848 4.96605 43.9401 5.01378 44.0408 5.0562ZM44.237 7.46908C44.6454 7.66529 44.7992 8.23802 44.5605 8.63575C44.3802 8.93272 44.0939 9.01757 43.2772 9.03348L42.5719 9.04408L42.556 8.24863C42.5507 7.81378 42.556 7.42135 42.5719 7.37893C42.6143 7.26757 43.9719 7.33651 44.237 7.46908Z" fill="#969292"/>
<path d="M30.1411 7.02684V9.91699H30.7775H31.4138V8.67078V7.42457H32.6866H33.9593V8.67078V9.91699H34.5957H35.232V7.02684V4.13669H34.5957H33.9593V5.32987V6.52305H32.6866H31.4138V5.32987V4.13669H30.7775H30.1411V7.02684Z" fill="#969292"/>
</svg>
