<svg width="17" height="21" viewBox="0 0 17 21" fill="none" xmlns="http://www.w3.org/2000/svg">
<path d="M8.75 10.2415C9.3 10.2415 9.771 10.0457 10.163 9.65403C10.5543 9.26303 10.75 8.79276 10.75 8.24323C10.75 7.6937 10.5543 7.22309 10.163 6.83143C9.771 6.44042 9.3 6.24492 8.75 6.24492C8.2 6.24492 7.72933 6.44042 7.338 6.83143C6.946 7.22309 6.75 7.6937 6.75 8.24323C6.75 8.79276 6.946 9.26303 7.338 9.65403C7.72933 10.0457 8.2 10.2415 8.75 10.2415ZM8.75 17.5853C10.7833 15.7202 12.2917 14.0257 13.275 12.5016C14.2583 10.9782 14.75 9.62539 14.75 8.44306C14.75 6.62793 14.1707 5.14152 13.012 3.98384C11.854 2.82682 10.4333 2.24831 8.75 2.24831C7.06667 2.24831 5.64567 2.82682 4.487 3.98384C3.329 5.14152 2.75 6.62793 2.75 8.44306C2.75 9.62539 3.24167 10.9782 4.225 12.5016C5.20833 14.0257 6.71667 15.7202 8.75 17.5853ZM8.75 20.2331C6.06667 17.9517 4.06267 15.8325 2.738 13.8755C1.41267 11.9191 0.75 10.1083 0.75 8.44306C0.75 5.94518 1.55433 3.9552 3.163 2.47312C4.771 0.991039 6.63333 0.25 8.75 0.25C10.8667 0.25 12.729 0.991039 14.337 2.47312C15.9457 3.9552 16.75 5.94518 16.75 8.44306C16.75 10.1083 16.0877 11.9191 14.763 13.8755C13.4377 15.8325 11.4333 17.9517 8.75 20.2331Z" fill="#295BB7"/>
</svg>
