<svg width="16" height="22" viewBox="0 0 16 22" fill="none" xmlns="http://www.w3.org/2000/svg">
<path d="M2 7.5H11V5.5C11 4.66667 10.7083 3.95833 10.125 3.375C9.54167 2.79167 8.83333 2.5 8 2.5C7.16667 2.5 6.45833 2.79167 5.875 3.375C5.29167 3.95833 5 4.66667 5 5.5H3C3 4.11667 3.48767 2.93733 4.463 1.962C5.43767 0.987333 6.61667 0.5 8 0.5C9.38333 0.5 10.5627 0.987333 11.538 1.962C12.5127 2.93733 13 4.11667 13 5.5V7.5H14C14.55 7.5 15.021 7.69567 15.413 8.087C15.8043 8.479 16 8.95 16 9.5V19.5C16 20.05 15.8043 20.521 15.413 20.913C15.021 21.3043 14.55 21.5 14 21.5H2C1.45 21.5 0.979333 21.3043 0.588 20.913C0.196 20.521 0 20.05 0 19.5V9.5C0 8.95 0.196 8.479 0.588 8.087C0.979333 7.69567 1.45 7.5 2 7.5ZM2 19.5H14V9.5H2V19.5ZM8 16.5C8.55 16.5 9.021 16.3043 9.413 15.913C9.80433 15.521 10 15.05 10 14.5C10 13.95 9.80433 13.479 9.413 13.087C9.021 12.6957 8.55 12.5 8 12.5C7.45 12.5 6.97933 12.6957 6.588 13.087C6.196 13.479 6 13.95 6 14.5C6 15.05 6.196 15.521 6.588 15.913C6.97933 16.3043 7.45 16.5 8 16.5Z" fill="white"/>
</svg>
