<svg width="60" height="60" viewBox="0 0 60 60" fill="none" xmlns="http://www.w3.org/2000/svg">
<path d="M60 30C60 46.5685 46.5685 60 30 60C13.4315 60 0 46.5685 0 30C0 13.4315 13.4315 0 30 0C46.5685 0 60 13.4315 60 30Z" fill="#1FB81F"/>
<path d="M23.1666 41.4447C22.5554 41.4447 22.0325 41.2273 21.5977 40.7924C21.1621 40.3569 20.9443 39.8335 20.9443 39.2224V28.1113C20.9443 27.5002 21.1621 26.9769 21.5977 26.5413C22.0325 26.1065 22.5554 25.8891 23.1666 25.8891H24.2777V23.6669C24.2777 22.1298 24.8195 20.8195 25.9032 19.7358C26.9862 18.6528 28.2962 18.1113 29.8332 18.1113C31.3703 18.1113 32.6806 18.6528 33.7643 19.7358C34.8473 20.8195 35.3888 22.1298 35.3888 23.6669V25.8891H36.4999C37.111 25.8891 37.6343 26.1065 38.0699 26.5413C38.5047 26.9769 38.7221 27.5002 38.7221 28.1113V39.2224C38.7221 39.8335 38.5047 40.3569 38.0699 40.7924C37.6343 41.2273 37.111 41.4447 36.4999 41.4447H23.1666ZM23.1666 39.2224H36.4999V28.1113H23.1666V39.2224ZM29.8332 35.8891C30.4443 35.8891 30.9677 35.6717 31.4032 35.2369C31.838 34.8013 32.0555 34.278 32.0555 33.6669C32.0555 33.0558 31.838 32.5324 31.4032 32.0969C30.9677 31.6621 30.4443 31.4447 29.8332 31.4447C29.2221 31.4447 28.6992 31.6621 28.2643 32.0969C27.8288 32.5324 27.611 33.0558 27.611 33.6669C27.611 34.278 27.8288 34.8013 28.2643 35.2369C28.6992 35.6717 29.2221 35.8891 29.8332 35.8891ZM26.4999 25.8891H33.1666V23.6669C33.1666 22.741 32.8425 21.9539 32.1943 21.3058C31.5462 20.6576 30.7592 20.3335 29.8332 20.3335C28.9073 20.3335 28.1203 20.6576 27.4721 21.3058C26.824 21.9539 26.4999 22.741 26.4999 23.6669V25.8891Z" fill="white"/>
</svg>
