<svg width="563" height="925" viewBox="0 0 563 925" fill="none" xmlns="http://www.w3.org/2000/svg">
<path fill-rule="evenodd" clip-rule="evenodd" d="M562.38 2.3555C562.501 1.18197 561.647 0.132496 560.474 0.0114428C559.3 -0.109608 558.251 0.74356 558.13 1.91707V1.91712V1.91731L558.13 1.91871L558.129 1.92509L558.126 1.95225L558.114 2.06385C558.104 2.16362 558.088 2.31401 558.066 2.51432C558.022 2.91495 557.955 3.51523 557.863 4.3095C557.678 5.89804 557.393 8.26251 556.992 11.3575C556.841 12.5275 557.666 13.5989 558.836 13.7505C560.006 13.9022 561.077 13.0767 561.229 11.9067C561.633 8.79228 561.92 6.40884 562.106 4.80185C562.2 3.99835 562.268 3.38895 562.313 2.97933C562.335 2.77452 562.352 2.61966 562.363 2.51545L562.375 2.39722L562.378 2.36676L562.379 2.35873L562.379 2.35651L562.379 2.35585L562.38 2.35564C562.38 2.35556 562.38 2.3555 560.255 2.13631L562.38 2.3555ZM558.541 30.9033C558.719 29.7369 557.917 28.6478 556.75 28.4708C555.584 28.2937 554.495 29.0957 554.318 30.2621C553.476 35.8073 552.474 42.1046 551.294 49.0991C551.098 50.2625 551.882 51.3646 553.045 51.5609C554.209 51.7572 555.311 50.9732 555.507 49.8099C556.691 42.7915 557.696 36.471 558.541 30.9033ZM552.162 68.7823C552.375 67.6219 551.607 66.5085 550.447 66.2953C549.286 66.0822 548.173 66.85 547.96 68.0104C546.877 73.9064 545.691 80.1459 544.395 86.7078C544.166 87.8652 544.919 88.9887 546.077 89.2173C547.234 89.4459 548.358 88.6929 548.586 87.5355C549.886 80.9546 551.075 74.6965 552.162 68.7823ZM544.728 106.433C544.971 105.279 544.233 104.146 543.078 103.903C541.924 103.659 540.791 104.398 540.548 105.552C539.284 111.549 537.937 117.76 536.504 124.172C536.247 125.323 536.971 126.465 538.123 126.722C539.274 126.98 540.416 126.255 540.673 125.104C542.111 118.674 543.461 112.447 544.728 106.433ZM536.379 143.793C536.65 142.645 535.939 141.494 534.79 141.223C533.642 140.952 532.492 141.663 532.221 142.811C530.791 148.868 529.288 155.076 527.71 161.426C527.426 162.571 528.123 163.73 529.268 164.014C530.413 164.299 531.572 163.601 531.857 162.456C533.439 156.089 534.945 149.865 536.379 143.793ZM527.116 181.071C527.414 179.929 526.73 178.762 525.588 178.464C524.447 178.167 523.28 178.851 522.982 179.992C521.402 186.051 519.755 192.221 518.041 198.497C517.73 199.635 518.4 200.81 519.538 201.121C520.676 201.432 521.851 200.761 522.162 199.623C523.881 193.331 525.532 187.145 527.116 181.071ZM516.997 218.109C517.321 216.975 516.664 215.792 515.53 215.468C514.395 215.144 513.213 215.801 512.889 216.936C511.164 222.975 509.378 229.1 507.529 235.305C507.192 236.436 507.835 237.626 508.966 237.963C510.096 238.299 511.286 237.656 511.623 236.526C513.477 230.304 515.268 224.163 516.997 218.109ZM506.039 254.873C506.389 253.746 505.76 252.549 504.633 252.199C503.506 251.849 502.309 252.478 501.959 253.605C500.092 259.616 498.166 265.695 496.18 271.836C495.817 272.958 496.433 274.162 497.555 274.525C498.678 274.888 499.882 274.273 500.245 273.15C502.236 266.993 504.167 260.899 506.039 254.873ZM494.24 291.358C494.616 290.24 494.014 289.029 492.896 288.653C491.778 288.277 490.566 288.878 490.19 289.997C488.179 295.976 486.112 302.008 483.988 308.088C483.598 309.202 484.186 310.42 485.3 310.809C486.413 311.199 487.632 310.611 488.021 309.498C490.151 303.401 492.224 297.353 494.24 291.358ZM481.587 327.566C481.989 326.457 481.416 325.232 480.307 324.83C479.198 324.428 477.973 325 477.57 326.109C475.414 332.052 473.203 338.037 470.937 344.059C470.521 345.163 471.079 346.395 472.183 346.81C473.287 347.226 474.519 346.668 474.935 345.564C477.208 339.526 479.425 333.525 481.587 327.566ZM468.063 363.487C468.492 362.388 467.949 361.15 466.85 360.721C465.751 360.292 464.513 360.835 464.084 361.934C461.78 367.836 459.422 373.769 457.009 379.732C456.567 380.826 457.095 382.071 458.188 382.513C459.282 382.956 460.527 382.428 460.97 381.335C463.389 375.355 465.753 369.405 468.063 363.487ZM453.656 399.092C454.112 398.004 453.6 396.752 452.512 396.296C451.424 395.84 450.172 396.352 449.716 397.44C447.269 403.275 444.77 409.134 442.218 415.014C441.748 416.097 442.244 417.355 443.326 417.825C444.409 418.294 445.667 417.798 446.137 416.716C448.697 410.819 451.203 404.943 453.656 399.092ZM438.388 434.256C438.872 433.18 438.391 431.915 437.315 431.432C436.239 430.948 434.975 431.428 434.491 432.504C433.182 435.417 431.859 438.334 430.524 441.255C429.16 444.237 427.77 447.202 426.354 450.149C425.844 451.213 426.291 452.489 427.355 453C428.418 453.51 429.695 453.062 430.205 451.999C431.633 449.027 433.034 446.038 434.409 443.032C435.749 440.102 437.075 437.177 438.388 434.256ZM421.287 469.68C421.839 468.637 421.441 467.344 420.398 466.792C419.356 466.24 418.063 466.638 417.511 467.681C414.439 473.484 411.262 479.206 407.979 484.838C407.385 485.857 407.73 487.165 408.749 487.759C409.768 488.353 411.076 488.009 411.67 486.99C414.983 481.306 418.189 475.533 421.287 469.68ZM401.329 503.891C401.966 502.898 401.678 501.577 400.685 500.939C399.693 500.302 398.371 500.59 397.734 501.582C394.186 507.107 390.53 512.53 386.767 517.843C386.085 518.805 386.312 520.139 387.275 520.821C388.237 521.503 389.571 521.275 390.253 520.312C394.055 514.945 397.747 509.469 401.329 503.891ZM378.409 536.212C379.136 535.284 378.973 533.941 378.045 533.213C377.116 532.486 375.773 532.649 375.046 533.577C370.997 538.745 366.838 543.789 362.568 548.7C361.793 549.59 361.888 550.939 362.778 551.713C363.668 552.487 365.017 552.393 365.792 551.503C370.111 546.536 374.316 541.436 378.409 536.212ZM352.383 566.113C353.204 565.266 353.183 563.913 352.336 563.092C351.489 562.271 350.137 562.292 349.315 563.139C344.75 567.847 340.071 572.409 335.279 576.813C334.411 577.612 334.354 578.963 335.152 579.832C335.95 580.7 337.302 580.757 338.17 579.959C343.024 575.497 347.762 570.879 352.383 566.113ZM323.163 592.94C324.079 592.196 324.218 590.851 323.474 589.935C322.73 589.02 321.384 588.881 320.469 589.625C315.391 593.751 310.198 597.708 304.89 601.483C303.929 602.167 303.704 603.501 304.388 604.462C305.072 605.424 306.405 605.649 307.367 604.965C312.751 601.135 318.017 597.123 323.163 592.94ZM290.81 615.929C291.815 615.311 292.129 613.996 291.512 612.99C290.894 611.985 289.578 611.671 288.573 612.289C283.017 615.704 277.346 618.927 271.559 621.948C270.513 622.494 270.108 623.785 270.654 624.83C271.2 625.876 272.49 626.281 273.536 625.735C279.413 622.667 285.171 619.395 290.81 615.929ZM255.607 634.293C256.69 633.824 257.186 632.566 256.717 631.483C256.248 630.401 254.99 629.904 253.907 630.373C247.95 632.957 241.879 635.333 235.696 637.491C234.582 637.88 233.994 639.098 234.383 640.212C234.772 641.326 235.99 641.914 237.104 641.525C243.387 639.332 249.555 636.918 255.607 634.293ZM218.106 647.38C219.245 647.074 219.921 645.903 219.616 644.763C219.31 643.624 218.139 642.948 216.999 643.253C210.756 644.928 204.405 646.386 197.948 647.62C196.789 647.841 196.029 648.96 196.25 650.119C196.472 651.278 197.59 652.037 198.749 651.816C205.309 650.563 211.762 649.081 218.106 647.38ZM179.111 654.837C180.283 654.699 181.121 653.638 180.984 652.466C180.846 651.294 179.785 650.456 178.613 650.593C172.212 651.344 165.713 651.88 159.114 652.191C157.936 652.246 157.026 653.246 157.081 654.425C157.137 655.603 158.137 656.514 159.316 656.458C166.012 656.142 172.611 655.599 179.111 654.837ZM139.465 656.725C140.644 656.748 141.619 655.811 141.643 654.631C141.666 653.452 140.728 652.477 139.549 652.454C136.301 652.39 133.031 652.273 129.739 652.102C126.689 651.943 123.624 651.666 120.548 651.276C119.377 651.127 118.308 651.955 118.159 653.125C118.011 654.296 118.839 655.365 120.009 655.514C123.187 655.917 126.358 656.204 129.517 656.368C132.855 656.542 136.171 656.66 139.465 656.725ZM79.3089 550.928C81.1139 556.944 82.8045 563.074 84.3726 569.301C84.6607 570.445 85.8217 571.139 86.9657 570.851C88.1098 570.563 88.8037 569.402 88.5155 568.258C86.932 561.969 85.2245 555.778 83.4009 549.701C83.0619 548.571 81.871 547.929 80.741 548.268C79.611 548.607 78.9698 549.798 79.3089 550.928ZM92.7997 586.977C92.5613 585.821 91.4314 585.078 90.276 585.316C89.1205 585.555 88.3771 586.685 88.6155 587.84C89.889 594.012 91.0411 600.259 92.0647 606.566C92.2537 607.731 93.351 608.521 94.5155 608.332C95.68 608.143 96.4708 607.046 96.2818 605.882C95.2484 599.515 94.0854 593.208 92.7997 586.977ZM73.4213 532.85C73.8133 533.963 75.0331 534.547 76.1459 534.155C77.2586 533.763 77.8429 532.543 77.4509 531.431C75.2846 525.28 72.9978 519.275 70.5999 513.436C70.1518 512.344 68.9038 511.823 67.8125 512.271C66.7212 512.719 66.1997 513.967 66.6478 515.058C69.0174 520.829 71.2784 526.766 73.4213 532.85ZM98.9588 624.923C98.8194 623.751 97.7567 622.915 96.5853 623.054C95.4137 623.193 94.577 624.256 94.7164 625.427C95.463 631.703 96.0795 638.022 96.5594 644.368C96.6483 645.545 97.674 646.426 98.8504 646.337C100.027 646.248 100.908 645.223 100.819 644.046C100.335 637.638 99.7125 631.259 98.9588 624.923ZM58.9536 497.7C59.4625 498.764 60.7378 499.214 61.8022 498.706C62.8666 498.197 63.317 496.921 62.8082 495.857C59.9695 489.919 57.0111 484.198 53.9445 478.72C53.3683 477.691 52.0665 477.323 51.0371 477.9C50.0077 478.476 49.6404 479.778 50.2166 480.807C53.2361 486.201 56.1525 491.84 58.9536 497.7ZM101.317 651.841C102.458 652.142 103.627 651.461 103.928 650.321C104.229 649.18 103.548 648.011 102.407 647.71C96.5336 646.161 90.649 644.235 84.7798 641.965C83.6795 641.54 82.4424 642.087 82.0169 643.187C81.5914 644.287 82.1384 645.524 83.2387 645.95C89.2455 648.273 95.2807 650.249 101.317 651.841ZM101.849 663.243C101.812 662.064 100.826 661.138 99.6465 661.175C98.4673 661.212 97.5415 662.198 97.5786 663.377C97.778 669.712 97.8365 676.061 97.7474 682.41C97.7309 683.59 98.6737 684.56 99.8534 684.576C101.033 684.593 102.003 683.65 102.019 682.47C102.109 676.055 102.05 669.641 101.849 663.243ZM40.3584 464.627C41.0114 465.609 42.3373 465.877 43.3198 465.224C44.3024 464.571 44.5697 463.245 43.9168 462.262C40.236 456.723 36.4329 451.521 32.5237 446.693C31.7813 445.777 30.4362 445.635 29.5193 446.378C28.6025 447.12 28.461 448.465 29.2035 449.382C33.0214 454.097 36.7456 459.19 40.3584 464.627ZM101.297 701.687C101.369 700.509 100.473 699.496 99.2959 699.423C98.1184 699.35 97.1049 700.246 97.0324 701.424C96.6422 707.759 96.0979 714.081 95.3932 720.375C95.262 721.547 96.106 722.604 97.2784 722.735C98.4509 722.867 99.5078 722.023 99.6391 720.85C100.352 714.484 100.902 708.091 101.297 701.687ZM16.4954 435.439C17.3448 436.258 18.697 436.234 19.5159 435.384C20.3348 434.535 20.3101 433.183 19.4608 432.364C17.0756 430.064 14.6593 427.902 12.2151 425.885C9.73526 423.839 7.27717 421.89 4.84465 420.04C3.90558 419.326 2.56541 419.509 1.85126 420.448C1.13712 421.387 1.31944 422.727 2.25851 423.441C4.64433 425.256 7.0581 427.169 9.4961 429.181C11.8504 431.123 14.1847 433.211 16.4954 435.439ZM65.8848 638.252C66.94 638.779 68.2232 638.352 68.7508 637.296C69.2784 636.241 68.8507 634.958 67.7955 634.43C62.3225 631.694 56.888 628.68 51.514 625.416C50.5056 624.804 49.1917 625.125 48.5794 626.133C47.9669 627.141 48.2879 628.455 49.2962 629.068C54.7648 632.389 60.3018 635.46 65.8848 638.252ZM96.9984 739.905C97.1915 738.741 96.4046 737.641 95.2408 737.448C94.0769 737.255 92.9769 738.042 92.7838 739.206C91.7437 745.473 90.5346 751.698 89.1497 757.866C88.8912 759.017 89.6149 760.16 90.766 760.418C91.9171 760.677 93.0598 759.953 93.3182 758.802C94.7212 752.553 95.9456 746.249 96.9984 739.905ZM88.5421 777.456C88.8694 776.323 88.2159 775.139 87.0825 774.811C85.9491 774.484 84.7648 775.137 84.4375 776.271C82.6769 782.368 80.7306 788.393 78.5921 794.331C78.1923 795.441 78.7681 796.665 79.8781 797.065C80.988 797.464 82.2119 796.889 82.6117 795.779C84.7823 789.751 86.7568 783.638 88.5421 777.456ZM33.481 618.64C34.4421 619.324 35.7759 619.1 36.4602 618.139C37.1445 617.178 36.9201 615.844 35.9591 615.16C30.9361 611.583 25.9902 607.802 21.1413 603.839C20.2278 603.093 18.882 603.228 18.1355 604.142C17.389 605.055 17.5244 606.401 18.4379 607.147C23.3575 611.168 28.3785 615.007 33.481 618.64ZM75.4647 813.681C75.9401 812.602 75.4502 811.341 74.3705 810.866C73.2907 810.39 72.0301 810.88 71.5547 811.96C70.2797 814.856 68.9542 817.726 67.5775 820.569C66.0866 823.647 64.6146 826.638 63.1625 829.542C62.6349 830.597 63.0625 831.88 64.1177 832.408C65.1729 832.936 66.456 832.508 66.9837 831.453C68.444 828.532 69.9239 825.526 71.4226 822.431C72.8222 819.541 74.1693 816.624 75.4647 813.681ZM4.16793 594.722C5.0334 595.523 6.38493 595.472 7.18663 594.606C7.98839 593.741 7.93666 592.389 7.07113 591.587C4.68209 589.374 2.32415 587.12 0 584.828V590.79C1.37833 592.114 2.76782 593.425 4.16793 594.722ZM57.7762 849.245C58.3338 848.206 57.9428 846.911 56.9032 846.353C55.8635 845.796 54.5686 846.187 54.0111 847.226C50.6427 853.508 47.4054 859.293 44.3111 864.614C43.7181 865.634 44.0641 866.941 45.0839 867.534C46.1038 868.127 47.4114 867.781 48.0044 866.761C51.1241 861.396 54.3853 855.569 57.7762 849.245ZM37.5316 883.938C38.1685 882.945 37.8798 881.624 36.8867 880.987C35.8936 880.35 34.5723 880.638 33.9354 881.632C29.8442 888.01 26.104 893.443 22.7549 898.039C22.0601 898.992 22.2699 900.329 23.2234 901.023C24.1768 901.718 25.513 901.508 26.2078 900.555C29.6089 895.887 33.3967 890.385 37.5316 883.938ZM13.6135 916.334C14.3993 915.454 14.3231 914.103 13.4432 913.318C12.5633 912.532 11.2129 912.608 10.427 913.488C8.1886 915.994 6.47219 917.726 5.32744 918.822C4.75509 919.37 4.32562 919.759 4.0453 920.005C3.90511 920.129 3.80221 920.217 3.73741 920.272C3.70496 920.299 3.68206 920.318 3.66873 920.329L3.65778 920.338L3.65728 920.339L3.65596 920.34L3.65509 920.34C2.7395 921.082 2.59758 922.425 3.3382 923.342C4.07949 924.26 5.42442 924.403 6.34221 923.662L5 922C6.34221 923.662 6.34252 923.661 6.34278 923.661L6.34345 923.661L6.34491 923.66L6.34853 923.657L6.35841 923.649L6.38896 923.623C6.41412 923.603 6.44877 923.574 6.49278 923.537C6.58096 923.462 6.70669 923.355 6.86932 923.211C7.19462 922.925 7.66745 922.496 8.28164 921.908C9.50999 920.732 11.3037 918.92 13.6135 916.334Z" fill="#C2C7D2"/>
</svg>
