<svg width="85" height="18" viewBox="0 0 85 18" fill="none" xmlns="http://www.w3.org/2000/svg">
<path d="M28.9719 6.2111C29.2196 6.2111 29.4244 6.29208 29.5864 6.45405C29.7484 6.61602 29.8294 6.82563 29.8294 7.08288V13.1282C29.8294 13.3759 29.7484 13.5855 29.5864 13.757C29.4244 13.919 29.2196 14 28.9719 14C28.7241 14 28.5193 13.919 28.3573 13.757C28.1954 13.5855 28.1144 13.3759 28.1144 13.1282V12.4279L28.4288 12.5566C28.4288 12.6804 28.3621 12.8329 28.2287 13.0139C28.0953 13.1854 27.9143 13.3569 27.6856 13.5284C27.457 13.6999 27.1854 13.8476 26.871 13.9714C26.5661 14.0857 26.2326 14.1429 25.8706 14.1429C25.2132 14.1429 24.6177 13.9762 24.0841 13.6427C23.5506 13.2997 23.1266 12.8329 22.8122 12.2421C22.5073 11.6419 22.3549 10.9559 22.3549 10.1842C22.3549 9.40288 22.5073 8.71688 22.8122 8.12617C23.1266 7.52592 23.5458 7.05906 24.0699 6.72559C24.5939 6.38259 25.1751 6.2111 25.8134 6.2111C26.2231 6.2111 26.5995 6.27303 26.9425 6.39689C27.2855 6.52075 27.5808 6.67795 27.8285 6.86851C28.0858 7.05906 28.2811 7.25438 28.4145 7.45446C28.5574 7.64502 28.6289 7.80699 28.6289 7.94038L28.1144 8.12617V7.08288C28.1144 6.83516 28.1954 6.63031 28.3573 6.46834C28.5193 6.29685 28.7241 6.2111 28.9719 6.2111ZM26.085 12.5708C26.5042 12.5708 26.871 12.466 27.1854 12.2564C27.4998 12.0468 27.7428 11.761 27.9143 11.3989C28.0953 11.0369 28.1858 10.632 28.1858 10.1842C28.1858 9.72682 28.0953 9.31713 27.9143 8.95508C27.7428 8.59302 27.4998 8.30719 27.1854 8.09758C26.871 7.88797 26.5042 7.78317 26.085 7.78317C25.6753 7.78317 25.3132 7.88797 24.9988 8.09758C24.6844 8.30719 24.4367 8.59302 24.2556 8.95508C24.0841 9.31713 23.9984 9.72682 23.9984 10.1842C23.9984 10.632 24.0841 11.0369 24.2556 11.3989C24.4367 11.761 24.6844 12.0468 24.9988 12.2564C25.3132 12.466 25.6753 12.5708 26.085 12.5708ZM31.8149 12.8138C31.7196 12.6804 31.6767 12.5089 31.6863 12.2993C31.6958 12.0897 31.8196 11.9087 32.0578 11.7562C32.2103 11.6609 32.3722 11.6228 32.5437 11.6419C32.7152 11.6514 32.882 11.7372 33.044 11.8991C33.3203 12.1754 33.6109 12.3898 33.9157 12.5423C34.2206 12.6947 34.6017 12.7709 35.0591 12.7709C35.202 12.7614 35.3592 12.7423 35.5307 12.7138C35.7022 12.6756 35.8499 12.5994 35.9737 12.4851C36.1071 12.3612 36.1738 12.1754 36.1738 11.9277C36.1738 11.7181 36.1023 11.5514 35.9594 11.4275C35.8165 11.3037 35.626 11.1989 35.3878 11.1131C35.1591 11.0274 34.9019 10.9464 34.616 10.8701C34.3207 10.7844 34.0158 10.6891 33.7014 10.5843C33.3965 10.4795 33.1154 10.3461 32.8582 10.1842C32.6009 10.0127 32.3913 9.78875 32.2293 9.51245C32.0674 9.23614 31.9864 8.88838 31.9864 8.46916C31.9864 7.99278 32.1198 7.58785 32.3865 7.25438C32.6533 6.92091 32.9963 6.66366 33.4155 6.48264C33.8443 6.30161 34.2921 6.2111 34.7589 6.2111C35.0543 6.2111 35.364 6.24921 35.6879 6.32543C36.0118 6.39212 36.3215 6.50645 36.6168 6.66843C36.9122 6.82087 37.1599 7.02572 37.36 7.28296C37.4648 7.42588 37.5267 7.59738 37.5458 7.79746C37.5649 7.99754 37.4743 8.17857 37.2743 8.34054C37.1313 8.45487 36.9646 8.50727 36.7741 8.49775C36.5835 8.47869 36.4263 8.412 36.3024 8.29766C36.1405 8.08805 35.9213 7.92132 35.645 7.79746C35.3782 7.6736 35.0686 7.61167 34.7161 7.61167C34.5732 7.61167 34.4159 7.63072 34.2444 7.66884C34.0825 7.69742 33.9396 7.76888 33.8157 7.88321C33.6918 7.98801 33.6299 8.15951 33.6299 8.39771C33.6299 8.61684 33.7014 8.79311 33.8443 8.92649C33.9872 9.05035 34.1778 9.15516 34.4159 9.24091C34.6637 9.31713 34.9257 9.39335 35.202 9.46957C35.4878 9.54579 35.7784 9.63631 36.0738 9.74111C36.3691 9.84592 36.6407 9.98407 36.8884 10.1556C37.1361 10.3271 37.3362 10.551 37.4886 10.8273C37.6411 11.094 37.7173 11.437 37.7173 11.8563C37.7173 12.3422 37.5744 12.7566 37.2885 13.0996C37.0027 13.4426 36.6454 13.7046 36.2167 13.8857C35.7879 14.0572 35.3497 14.1429 34.9019 14.1429C34.3397 14.1429 33.7776 14.0476 33.2155 13.8571C32.6533 13.657 32.1865 13.3092 31.8149 12.8138ZM39.8099 6.49693H43.197C43.4257 6.49693 43.6162 6.57315 43.7687 6.72559C43.9211 6.87804 43.9973 7.06859 43.9973 7.29725C43.9973 7.51639 43.9211 7.70218 43.7687 7.85463C43.6162 7.99754 43.4257 8.069 43.197 8.069H39.8099C39.5812 8.069 39.3907 7.99278 39.2382 7.84033C39.0858 7.68789 39.0096 7.49734 39.0096 7.26867C39.0096 7.04953 39.0858 6.86851 39.2382 6.72559C39.3907 6.57315 39.5812 6.49693 39.8099 6.49693ZM41.3391 4.71048C41.5868 4.71048 41.7869 4.79623 41.9393 4.96773C42.1013 5.1297 42.1823 5.33455 42.1823 5.58227V11.942C42.1823 12.0754 42.2061 12.185 42.2538 12.2707C42.3109 12.3565 42.3824 12.4184 42.4681 12.4565C42.5634 12.4946 42.6634 12.5137 42.7682 12.5137C42.8826 12.5137 42.9874 12.4946 43.0827 12.4565C43.1779 12.4089 43.2875 12.3851 43.4114 12.3851C43.5448 12.3851 43.6639 12.447 43.7687 12.5708C43.883 12.6947 43.9402 12.8662 43.9402 13.0853C43.9402 13.3521 43.7925 13.5713 43.4971 13.7428C43.2113 13.9143 42.9016 14 42.5682 14C42.3681 14 42.1442 13.9857 41.8965 13.9571C41.6583 13.919 41.4296 13.838 41.2105 13.7142C41.0009 13.5808 40.8246 13.3807 40.6817 13.1139C40.5388 12.8471 40.4673 12.4803 40.4673 12.0135V5.58227C40.4673 5.33455 40.5483 5.1297 40.7103 4.96773C40.8818 4.79623 41.0914 4.71048 41.3391 4.71048ZM54.9472 6.35401C55.1664 6.35401 55.3569 6.43976 55.5189 6.61126C55.6809 6.77323 55.7619 6.98284 55.7619 7.24009C55.7619 7.30678 55.7571 7.36871 55.7476 7.42588C55.738 7.47352 55.7237 7.52116 55.7047 7.56879L53.5181 13.4569C53.4514 13.6475 53.3323 13.7952 53.1608 13.9C52.9893 13.9952 52.8083 14.0286 52.6177 14C52.2938 13.9809 52.0508 13.7999 51.8888 13.4569L50.474 9.38382L50.8456 9.39812L49.5164 13.4569C49.3545 13.7999 49.1115 13.9809 48.7876 14C48.6065 14.0286 48.4255 13.9952 48.2445 13.9C48.073 13.7952 47.9539 13.6475 47.8872 13.4569L45.7006 7.56879C45.6625 7.46399 45.6434 7.35442 45.6434 7.24009C45.6434 7.01142 45.7196 6.80658 45.8721 6.62555C46.0245 6.44452 46.2341 6.35401 46.5009 6.35401C46.6819 6.35401 46.8439 6.39689 46.9868 6.48264C47.1297 6.56838 47.2298 6.70654 47.287 6.89709L49.0162 11.5847L48.6589 11.5561L49.9595 8.02612C50.1119 7.6736 50.3739 7.49734 50.7455 7.49734C50.9551 7.49734 51.1123 7.54498 51.2171 7.64025C51.3315 7.726 51.422 7.85463 51.4887 8.02612L52.7892 11.5561L52.3605 11.6133L54.1183 6.89709C54.2327 6.53504 54.509 6.35401 54.9472 6.35401ZM61.6439 6.2111C62.3109 6.2111 62.9064 6.38259 63.4304 6.72559C63.9639 7.05906 64.3832 7.52116 64.688 8.11187C65.0025 8.70259 65.1597 9.38859 65.1597 10.1699C65.1597 10.9511 65.0025 11.6419 64.688 12.2421C64.3832 12.8329 63.9687 13.2997 63.4447 13.6427C62.9302 13.9762 62.349 14.1429 61.7011 14.1429C61.32 14.1429 60.9627 14.081 60.6292 13.9571C60.2958 13.8333 60.0004 13.6761 59.7432 13.4855C59.4954 13.2949 59.3001 13.1044 59.1572 12.9138C59.0238 12.7138 58.9571 12.547 58.9571 12.4136L59.4002 12.2278V15.9865C59.4002 16.2342 59.3192 16.4391 59.1572 16.6011C58.9952 16.7726 58.7904 16.8583 58.5427 16.8583C58.295 16.8583 58.0901 16.7773 57.9281 16.6154C57.7662 16.4534 57.6852 16.2438 57.6852 15.9865V7.2258C57.6852 6.97808 57.7662 6.77323 57.9281 6.61126C58.0901 6.43976 58.295 6.35401 58.5427 6.35401C58.7904 6.35401 58.9952 6.43976 59.1572 6.61126C59.3192 6.77323 59.4002 6.97808 59.4002 7.2258V7.92608L59.1572 7.79746C59.1572 7.6736 59.2239 7.52592 59.3573 7.35442C59.4907 7.17339 59.6717 6.99713 59.9004 6.82563C60.129 6.64461 60.3911 6.49693 60.6864 6.38259C60.9913 6.26826 61.3105 6.2111 61.6439 6.2111ZM61.4296 7.78317C61.0104 7.78317 60.6435 7.88797 60.3291 8.09758C60.0147 8.30719 59.767 8.59302 59.586 8.95508C59.4145 9.3076 59.3287 9.71253 59.3287 10.1699C59.3287 10.6177 59.4145 11.0274 59.586 11.3989C59.767 11.761 60.0147 12.0468 60.3291 12.2564C60.6435 12.466 61.0104 12.5708 61.4296 12.5708C61.8488 12.5708 62.2108 12.466 62.5157 12.2564C62.8301 12.0468 63.0731 11.761 63.2446 11.3989C63.4256 11.0274 63.5161 10.6177 63.5161 10.1699C63.5161 9.71253 63.4256 9.3076 63.2446 8.95508C63.0731 8.59302 62.8301 8.30719 62.5157 8.09758C62.2108 7.88797 61.8488 7.78317 61.4296 7.78317ZM73.4907 6.2111C73.7384 6.2111 73.9432 6.29208 74.1052 6.45405C74.2672 6.61602 74.3481 6.82563 74.3481 7.08288V13.1282C74.3481 13.3759 74.2672 13.5855 74.1052 13.757C73.9432 13.919 73.7384 14 73.4907 14C73.2429 14 73.0381 13.919 72.8761 13.757C72.7141 13.5855 72.6332 13.3759 72.6332 13.1282V12.4279L72.9476 12.5566C72.9476 12.6804 72.8809 12.8329 72.7475 13.0139C72.6141 13.1854 72.4331 13.3569 72.2044 13.5284C71.9757 13.6999 71.7042 13.8476 71.3898 13.9714C71.0849 14.0857 70.7514 14.1429 70.3894 14.1429C69.732 14.1429 69.1365 13.9762 68.6029 13.6427C68.0694 13.2997 67.6454 12.8329 67.331 12.2421C67.0261 11.6419 66.8737 10.9559 66.8737 10.1842C66.8737 9.40288 67.0261 8.71688 67.331 8.12617C67.6454 7.52592 68.0646 7.05906 68.5886 6.72559C69.1127 6.38259 69.6939 6.2111 70.3322 6.2111C70.7419 6.2111 71.1183 6.27303 71.4613 6.39689C71.8042 6.52075 72.0996 6.67795 72.3473 6.86851C72.6046 7.05906 72.7999 7.25438 72.9333 7.45446C73.0762 7.64502 73.1477 7.80699 73.1477 7.94038L72.6332 8.12617V7.08288C72.6332 6.83516 72.7141 6.63031 72.8761 6.46834C73.0381 6.29685 73.2429 6.2111 73.4907 6.2111ZM70.6038 12.5708C71.023 12.5708 71.3898 12.466 71.7042 12.2564C72.0186 12.0468 72.2616 11.761 72.4331 11.3989C72.6141 11.0369 72.7046 10.632 72.7046 10.1842C72.7046 9.72682 72.6141 9.31713 72.4331 8.95508C72.2616 8.59302 72.0186 8.30719 71.7042 8.09758C71.3898 7.88797 71.023 7.78317 70.6038 7.78317C70.1941 7.78317 69.832 7.88797 69.5176 8.09758C69.2032 8.30719 68.9555 8.59302 68.7744 8.95508C68.6029 9.31713 68.5172 9.72682 68.5172 10.1842C68.5172 10.632 68.6029 11.0369 68.7744 11.3989C68.9555 11.761 69.2032 12.0468 69.5176 12.2564C69.832 12.466 70.1941 12.5708 70.6038 12.5708ZM82.4505 6.35401C82.6982 6.35401 82.903 6.43976 83.065 6.61126C83.227 6.77323 83.308 6.97808 83.308 7.2258V13.2997C83.308 14.1763 83.1412 14.8718 82.8077 15.3863C82.4838 15.9103 82.0455 16.2867 81.4929 16.5153C80.9403 16.744 80.321 16.8583 79.635 16.8583C79.3301 16.8583 79.0062 16.8345 78.6632 16.7869C78.3202 16.7392 78.0391 16.6678 77.82 16.5725C77.5342 16.4486 77.3341 16.2914 77.2197 16.1009C77.1149 15.9198 77.0959 15.7245 77.1626 15.5149C77.2483 15.2386 77.3865 15.048 77.577 14.9432C77.7676 14.848 77.9677 14.8384 78.1773 14.9147C78.3297 14.9623 78.5298 15.0338 78.7775 15.129C79.0252 15.2338 79.3111 15.2862 79.635 15.2862C80.0733 15.2862 80.4353 15.2243 80.7212 15.1005C81.0165 14.9861 81.2357 14.786 81.3786 14.5002C81.531 14.2239 81.6073 13.8428 81.6073 13.3569V12.3993L81.9074 12.7423C81.7454 13.0568 81.5406 13.3188 81.2928 13.5284C81.0546 13.7285 80.7688 13.8809 80.4353 13.9857C80.1019 14.0905 79.7208 14.1429 79.292 14.1429C78.7871 14.1429 78.344 14.0286 77.9629 13.7999C77.5913 13.5617 77.3007 13.2378 77.0911 12.8281C76.8815 12.4089 76.7767 11.9325 76.7767 11.3989V7.2258C76.7767 6.97808 76.8577 6.77323 77.0197 6.61126C77.1816 6.43976 77.3865 6.35401 77.6342 6.35401C77.8819 6.35401 78.0868 6.43976 78.2487 6.61126C78.4107 6.77323 78.4917 6.97808 78.4917 7.2258V10.8844C78.4917 11.5037 78.6251 11.942 78.8919 12.1993C79.1682 12.447 79.5493 12.5708 80.0352 12.5708C80.3687 12.5708 80.6497 12.5089 80.8784 12.3851C81.1071 12.2517 81.2833 12.0611 81.4072 11.8134C81.531 11.5561 81.593 11.2465 81.593 10.8844V7.2258C81.593 6.97808 81.674 6.77323 81.8359 6.61126C81.9979 6.43976 82.2027 6.35401 82.4505 6.35401Z" fill="white"/>
<path fill-rule="evenodd" clip-rule="evenodd" d="M0.155864 2.18C0.290948 2.00279 1.03911 2.0189 4.18762 2.22832C5.48401 2.30714 6.64828 2.3739 7.36665 2.40282C7.57794 2.41133 7.80494 2.41563 8.0336 2.41997C8.31734 2.42536 8.60365 2.43079 8.86569 2.44435L19.7025 3.00529C20.5641 3.04989 21.2188 3.7972 21.1496 4.65721L20.3689 14.3665C20.308 15.1245 19.6999 15.723 18.941 15.7719L8.11545 16.469L4.28113 16.759C2.18213 16.92 0.374077 17.0167 0.280558 16.9523C0.0727348 16.8395 0.0415649 16.1468 0.228605 15.9052C0.363689 15.7441 1.94314 15.3736 5.6008 14.6647C6.775 14.4392 7.79333 14.1654 7.86607 14.0687C8.01714 13.8896 8.03901 13.3924 7.93169 13.1312C7.89917 13.0521 7.83331 12.9926 7.75126 12.9684C7.42797 12.873 6.47856 12.7477 5.41376 12.6672C4.13566 12.5544 3.00303 12.4094 2.88873 12.3128C2.61856 12.0872 2.63934 11.3945 2.93029 11.2818C3.06538 11.2334 4.12527 11.0562 5.28907 10.8952C7.36729 10.6052 7.41925 10.5891 7.65824 10.1702C7.9388 9.65473 7.95959 9.31644 7.74137 8.83316C7.56472 8.44653 7.07634 8.26933 5.53846 8.01158C4.50974 7.85048 4.26035 7.67328 4.26035 7.09335C4.26035 6.41675 4.48896 6.3201 6.34896 6.19122C7.45042 6.11067 8.1778 5.99791 8.27132 5.86904C8.44797 5.64351 8.45836 5.17633 8.28171 4.9508C8.21936 4.87025 7.05556 4.56418 5.71511 4.29032C0.103912 3.13044 0 3.09823 0 2.58273C0 2.46996 0.0727361 2.29276 0.155864 2.18ZM12.4589 13.7568C12.6304 13.9188 12.8495 13.9998 13.1163 13.9998C13.3545 13.9998 13.5594 13.9188 13.7309 13.7568C13.9119 13.5853 14.0024 13.3757 14.0024 13.128V9.79808H17.0894C17.3371 9.79808 17.5419 9.71709 17.7039 9.55512C17.8754 9.39315 17.9612 9.20736 17.9612 8.99775C17.9612 8.75003 17.8754 8.54995 17.7039 8.3975C17.5419 8.23553 17.3371 8.15455 17.0894 8.15455H14.0024V5.63923H17.7325C17.9802 5.63923 18.1851 5.55824 18.347 5.39627C18.5185 5.2343 18.6043 5.04851 18.6043 4.8389C18.6043 4.59118 18.5185 4.3911 18.347 4.23866C18.1851 4.07668 17.9802 3.9957 17.7325 3.9957H13.0877C12.84 3.9957 12.6304 4.08145 12.4589 4.25295C12.2969 4.41492 12.2159 4.61976 12.2159 4.86748V13.128C12.2159 13.3757 12.2969 13.5853 12.4589 13.7568Z" fill="white"/>
</svg>
