<svg width="34" height="24" viewBox="0 0 34 24" fill="none" xmlns="http://www.w3.org/2000/svg">
<path fill-rule="evenodd" clip-rule="evenodd" d="M0.250197 0.196047C0.46704 -0.0891093 1.66801 -0.0631904 6.72205 0.273811C8.80094 0.400512 10.6681 0.507862 11.8216 0.554477C12.1618 0.568227 12.5274 0.575208 12.8958 0.582241C13.3525 0.59096 13.8133 0.599759 14.2349 0.621639L31.6246 1.524C33.0091 1.59584 34.061 2.79656 33.9502 4.17847L32.6965 19.8091C32.5987 21.0275 31.6216 21.9895 30.4019 22.0683L13.0271 23.1899L6.87217 23.6565C3.5028 23.9158 0.600479 24.0713 0.450359 23.9676C0.11676 23.7862 0.0667228 22.6715 0.366962 22.2826C0.583805 22.0234 3.11917 21.4272 8.99054 20.2865C10.8754 19.9236 12.51 19.4829 12.6268 19.3274C12.8693 19.0391 12.9044 18.2387 12.732 17.8186C12.6799 17.6915 12.5742 17.5958 12.4425 17.5568C11.9235 17.4032 10.3995 17.2016 8.69029 17.0721C6.63865 16.8906 4.82053 16.6573 4.63705 16.5017C4.20337 16.1388 4.23673 15.0241 4.70377 14.8427C4.92061 14.7649 6.62197 14.4797 8.49013 14.2205C11.8261 13.7539 11.9095 13.728 12.2932 13.054C12.7435 12.2244 12.7769 11.68 12.4266 10.9023C12.1431 10.2802 11.3591 9.99502 8.89045 9.58024C7.23913 9.32101 6.83881 9.03586 6.83881 8.10262C6.83881 7.01385 7.20577 6.85831 10.1915 6.65092C11.9596 6.5213 13.1272 6.33985 13.2773 6.13246C13.5609 5.76954 13.5775 5.01776 13.294 4.65483C13.1939 4.52522 11.3257 4.03268 9.17402 3.59198C0.1668 1.72551 0 1.67367 0 0.844126C0 0.662663 0.116759 0.377508 0.250197 0.196047ZM20.0079 19.2922C20.2836 19.5526 20.6358 19.6827 21.0645 19.6827C21.4474 19.6827 21.7766 19.5526 22.0522 19.2922C22.3432 19.0166 22.4887 18.6797 22.4887 18.2816V12.9297H27.4501C27.8482 12.9297 28.1774 12.7995 28.4378 12.5392C28.7134 12.2789 28.8512 11.9803 28.8512 11.6434C28.8512 11.2453 28.7134 10.9237 28.4378 10.6787C28.1774 10.4184 27.8482 10.2882 27.4501 10.2882H22.4887V6.24556H28.4837C28.8818 6.24556 29.2111 6.1154 29.4714 5.85507C29.747 5.59475 29.8848 5.29615 29.8848 4.95926C29.8848 4.56112 29.747 4.23955 29.4714 3.99454C29.2111 3.73422 28.8818 3.60406 28.4837 3.60406H21.0186C20.6205 3.60406 20.2836 3.74188 20.0079 4.01751C19.7476 4.27783 19.6175 4.60706 19.6175 5.0052V18.2816C19.6175 18.6797 19.7476 19.0166 20.0079 19.2922Z" fill="#295BB7"/>
</svg>
