<svg width="347" height="393" viewBox="0 0 347 393" fill="none" xmlns="http://www.w3.org/2000/svg">
<circle cx="157.105" cy="159.303" r="115.831" fill="#F7E9CE"/>
<circle r="80.064" transform="matrix(1 0 0 -1 157.103 159.302)" fill="#F8CA75"/>
<path d="M170.029 2.69464C164.432 5.49294 160.494 9.63857 158.421 15.0279C157.695 16.9971 157.281 28.5012 157.281 48.4002V78.8705L154.482 79.907C150.751 81.3579 150.13 82.498 150.13 88.8201C150.13 93.8984 149.922 94.313 147.642 94.313C146.295 94.313 144.015 95.2458 142.46 96.4895C139.765 98.5623 139.765 98.7696 139.765 112.036C139.765 123.021 139.455 125.613 138.211 126.027C137.382 126.442 136.656 127.789 136.656 129.136V131.52L159.768 131.313C182.776 131.105 182.776 131.105 183.087 128.722C183.295 127.167 182.88 126.442 181.844 126.442C180.393 126.442 180.185 124.472 180.185 112.554C180.185 98.7696 180.185 98.5623 177.491 96.4895C175.936 95.2458 173.656 94.313 172.309 94.313C170.029 94.313 169.821 93.8984 169.821 88.8201C169.821 82.9125 167.852 79.8033 164.328 79.8033C162.67 79.8033 162.566 77.2123 162.566 50.9912C162.566 34.3051 162.981 20.6245 163.706 18.448C165.261 12.7478 170.961 7.6694 177.18 6.32207C180.6 5.59658 210.241 5.18201 264.238 5.18201H346.114L345.803 2.79828L345.492 0.518188L260.507 0.20726L175.418 -1.52588e-05L170.029 2.69464Z" fill="#295BB7"/>
<path d="M121.63 121.467C120.697 123.954 121.526 136.288 122.666 136.288C124.013 136.288 124.635 122.296 123.288 120.949C122.562 120.223 122.044 120.431 121.63 121.467Z" fill="#81A5E8"/>
<path d="M100.901 129.551C100.175 130.691 109.192 140.952 110.954 140.952C113.027 140.952 111.369 137.842 106.705 133.282C103.285 129.966 101.419 128.722 100.901 129.551Z" fill="#81A5E8"/>
<path d="M92.8171 149.968C90.9516 151.73 92.7135 152.352 99.8647 152.352C106.083 152.352 107.638 152.041 107.638 150.797C107.638 149.554 106.187 149.243 100.59 149.243C96.6518 149.243 93.128 149.554 92.8171 149.968Z" fill="#81A5E8"/>
<path d="M148.268 185.724C147.439 186.553 147.025 190.388 147.025 196.088V205.209H141.843C136.972 205.209 136.661 205.416 136.661 207.8C136.661 209.458 137.282 210.391 138.215 210.391C139.563 210.391 139.77 212.567 139.77 223.864C139.77 235.99 139.977 237.545 141.843 239.41C142.983 240.55 145.263 241.483 147.025 241.483C150.03 241.483 150.03 241.587 150.341 247.805C150.652 254.231 151.17 255.06 155.627 256.407C157.181 256.926 157.389 258.791 157.389 277.446C157.285 303.875 156.456 307.709 148.683 313.41C145.885 315.586 144.434 315.586 81.9383 316.104L17.992 316.623L13.0173 319.006C7.10975 322.012 2.54956 327.298 0.994951 333.101C0.165825 335.9 -0.145097 346.575 0.0621844 364.815C0.373106 391.451 0.476747 392.28 2.44592 392.28C4.41509 392.28 4.51873 391.451 5.03694 364.297C5.65878 332.583 6.07334 330.614 13.6391 325.639L17.8884 322.841L82.1456 322.323C153.347 321.701 149.097 322.219 156.041 314.861C162.156 308.539 162.571 306.258 162.571 279.83V255.993H165.162C168.478 255.993 169.826 253.298 169.826 246.769C169.826 241.587 169.929 241.483 172.935 241.483C174.697 241.483 176.977 240.55 178.117 239.41C179.982 237.545 180.19 235.99 180.19 223.864C180.19 212.567 180.397 210.391 181.744 210.391C182.677 210.391 183.299 209.458 183.299 207.8C183.299 205.416 182.988 205.209 178.117 205.209H172.935V196.088C172.935 185.206 171.173 182.201 167.338 186.139C166.095 187.383 165.68 189.87 165.68 196.503V205.209H160.083C153.347 205.209 153.243 205.002 153.243 193.808C153.243 187.383 152.932 185.621 151.585 185.103C149.512 184.273 149.719 184.273 148.268 185.724Z" fill="#295BB7"/>
<path d="M211.798 192.772C211.487 193.29 211.798 194.119 212.627 194.43C215.011 195.363 227.344 194.43 227.344 193.29C227.344 191.839 212.627 191.321 211.798 192.772Z" fill="#81A5E8"/>
<path d="M207.547 204.276C206.511 206.038 217.186 216.298 218.637 214.847C219.466 214.018 218.74 212.567 215.839 209.458C211.175 204.276 208.584 202.618 207.547 204.276Z" fill="#81A5E8"/>
<path d="M195.944 215.78C196.151 219.926 196.773 223.346 197.291 223.346C197.913 223.346 198.431 219.926 198.639 215.78C198.846 209.561 198.639 208.318 197.291 208.318C195.944 208.318 195.737 209.561 195.944 215.78Z" fill="#81A5E8"/>
</svg>
