<svg width="18" height="18" viewBox="0 0 18 18" fill="none" xmlns="http://www.w3.org/2000/svg">
<path d="M16.95 17.9848C14.8 17.9848 12.7043 17.5058 10.663 16.548C8.621 15.5908 6.81267 14.3252 5.238 12.7512C3.66267 11.1779 2.396 9.37106 1.438 7.33079C0.479334 5.29118 0 3.19729 0 1.04911C0 0.749365 0.0999999 0.499577 0.3 0.299746C0.5 0.0999153 0.75 0 1.05 0H5.1C5.33333 0 5.54167 0.0749364 5.725 0.224809C5.90833 0.374683 6.01667 0.566187 6.05 0.799323L6.7 4.29636C6.73333 4.5295 6.72933 4.74165 6.688 4.93282C6.646 5.12466 6.55 5.29551 6.4 5.44539L3.975 7.89331C4.675 9.0923 5.55433 10.2163 6.613 11.2655C7.671 12.3146 8.83333 13.2221 10.1 13.9882L12.45 11.6401C12.6 11.4903 12.796 11.3777 13.038 11.3024C13.2793 11.2278 13.5167 11.2072 13.75 11.2405L17.2 11.9399C17.4333 11.9898 17.625 12.1021 17.775 12.2766C17.925 12.4518 18 12.6559 18 12.8891V16.9357C18 17.2354 17.9 17.4852 17.7 17.685C17.5 17.8849 17.25 17.9848 16.95 17.9848ZM3.025 5.99492L4.675 4.34632L4.25 1.99831H2.025C2.10833 2.68106 2.225 3.35549 2.375 4.02159C2.525 4.6877 2.74167 5.34547 3.025 5.99492ZM11.975 14.9373C12.625 15.2204 13.2877 15.4453 13.963 15.6118C14.6377 15.7783 15.3167 15.8865 16 15.9365V13.7384L13.65 13.2638L11.975 14.9373Z" fill="#295BB7"/>
</svg>
