<svg width="86" height="133" viewBox="0 0 86 133" fill="none" xmlns="http://www.w3.org/2000/svg">
<path d="M11.4242 97.16C11.5949 97.736 11.7762 98.3387 11.9682 98.968C12.1602 99.5867 12.3575 100.211 12.5602 100.84C12.7735 101.459 12.9815 102.072 13.1842 102.68C13.3975 103.277 13.6002 103.843 13.7922 104.376C13.9522 103.8 14.1069 103.176 14.2562 102.504C14.4055 101.821 14.5549 101.117 14.7042 100.392C14.8535 99.656 14.9975 98.9093 15.1362 98.152C15.2855 97.3947 15.4242 96.648 15.5522 95.912H17.6322C17.2589 97.9173 16.8429 99.848 16.3842 101.704C15.9255 103.549 15.4135 105.315 14.8482 107H12.9282C12.0962 104.845 11.2909 102.493 10.5122 99.944C10.1175 101.235 9.71752 102.461 9.31219 103.624C8.90685 104.787 8.50152 105.912 8.09619 107H6.17619C5.60019 105.315 5.08285 103.549 4.62419 101.704C4.17619 99.848 3.76552 97.9173 3.39219 95.912H5.55219C5.68019 96.6373 5.81352 97.3787 5.95219 98.136C6.10152 98.8933 6.25085 99.64 6.40019 100.376C6.56019 101.101 6.72019 101.805 6.88019 102.488C7.04019 103.171 7.20019 103.8 7.36019 104.376C7.56285 103.832 7.76552 103.261 7.96819 102.664C8.18152 102.056 8.38952 101.443 8.59219 100.824C8.79485 100.195 8.98685 99.5707 9.16819 98.952C9.36019 98.3333 9.53619 97.736 9.69619 97.16H11.4242ZM26.5109 102.808C26.5109 103.469 26.4149 104.072 26.2229 104.616C26.0309 105.16 25.7589 105.624 25.4069 106.008C25.0549 106.392 24.6283 106.691 24.1269 106.904C23.6363 107.117 23.0923 107.224 22.4949 107.224C21.8976 107.224 21.3536 107.117 20.8629 106.904C20.3723 106.691 19.9509 106.392 19.5989 106.008C19.2469 105.624 18.9696 105.16 18.7669 104.616C18.5749 104.072 18.4789 103.469 18.4789 102.808C18.4789 102.147 18.5749 101.549 18.7669 101.016C18.9696 100.472 19.2469 100.008 19.5989 99.624C19.9616 99.24 20.3883 98.9467 20.8789 98.744C21.3696 98.5307 21.9083 98.424 22.4949 98.424C23.0816 98.424 23.6203 98.5307 24.1109 98.744C24.6123 98.9467 25.0389 99.24 25.3909 99.624C25.7429 100.008 26.0149 100.472 26.2069 101.016C26.4096 101.549 26.5109 102.147 26.5109 102.808ZM24.5269 102.808C24.5269 101.976 24.3456 101.32 23.9829 100.84C23.6309 100.349 23.1349 100.104 22.4949 100.104C21.8549 100.104 21.3536 100.349 20.9909 100.84C20.6389 101.32 20.4629 101.976 20.4629 102.808C20.4629 103.651 20.6389 104.317 20.9909 104.808C21.3536 105.299 21.8549 105.544 22.4949 105.544C23.1349 105.544 23.6309 105.299 23.9829 104.808C24.3456 104.317 24.5269 103.651 24.5269 102.808ZM33.2734 100.376C33.1134 100.323 32.8894 100.269 32.6014 100.216C32.3241 100.152 31.9988 100.12 31.6254 100.12C31.4121 100.12 31.1828 100.141 30.9374 100.184C30.7028 100.227 30.5374 100.264 30.4414 100.296V107H28.5054V99.032C28.8788 98.8933 29.3428 98.7653 29.8974 98.648C30.4628 98.52 31.0868 98.456 31.7694 98.456C31.8974 98.456 32.0468 98.4667 32.2174 98.488C32.3881 98.4987 32.5588 98.52 32.7294 98.552C32.9001 98.5733 33.0654 98.6053 33.2254 98.648C33.3854 98.68 33.5134 98.712 33.6094 98.744L33.2734 100.376ZM36.4786 102.792C36.4786 103.645 36.6812 104.317 37.0866 104.808C37.4919 105.288 38.0519 105.528 38.7666 105.528C39.0759 105.528 39.3372 105.517 39.5506 105.496C39.7746 105.464 39.9559 105.432 40.0946 105.4V100.6C39.9239 100.483 39.6946 100.376 39.4066 100.28C39.1292 100.173 38.8306 100.12 38.5106 100.12C37.8066 100.12 37.2892 100.36 36.9586 100.84C36.6386 101.32 36.4786 101.971 36.4786 102.792ZM42.0306 106.744C41.6466 106.861 41.1612 106.968 40.5746 107.064C39.9986 107.16 39.3906 107.208 38.7506 107.208C38.0892 107.208 37.4972 107.107 36.9746 106.904C36.4519 106.701 36.0039 106.413 35.6306 106.04C35.2679 105.656 34.9852 105.197 34.7826 104.664C34.5906 104.12 34.4946 103.512 34.4946 102.84C34.4946 102.179 34.5746 101.581 34.7346 101.048C34.9052 100.504 35.1506 100.04 35.4706 99.656C35.7906 99.272 36.1799 98.9787 36.6386 98.776C37.0972 98.5627 37.6252 98.456 38.2226 98.456C38.6279 98.456 38.9852 98.504 39.2946 98.6C39.6039 98.696 39.8706 98.8027 40.0946 98.92V94.904L42.0306 94.584V106.744ZM50.0418 102.856C50.0418 101.992 49.8445 101.32 49.4498 100.84C49.0658 100.36 48.4418 100.12 47.5778 100.12C47.3965 100.12 47.2045 100.131 47.0018 100.152C46.8098 100.163 46.6178 100.195 46.4258 100.248V105.032C46.5965 105.149 46.8205 105.261 47.0978 105.368C47.3858 105.464 47.6898 105.512 48.0098 105.512C48.7138 105.512 49.2258 105.272 49.5458 104.792C49.8765 104.312 50.0418 103.667 50.0418 102.856ZM52.0258 102.824C52.0258 103.464 51.9405 104.051 51.7698 104.584C51.6098 105.117 51.3751 105.576 51.0658 105.96C50.7565 106.344 50.3671 106.643 49.8978 106.856C49.4391 107.069 48.9165 107.176 48.3298 107.176C47.9351 107.176 47.5725 107.128 47.2418 107.032C46.9111 106.936 46.6391 106.829 46.4258 106.712V109.96H44.4898V98.904C44.8845 98.7973 45.3698 98.696 45.9458 98.6C46.5218 98.504 47.1298 98.456 47.7698 98.456C48.4311 98.456 49.0231 98.5573 49.5458 98.76C50.0685 98.9627 50.5111 99.256 50.8738 99.64C51.2471 100.013 51.5298 100.472 51.7218 101.016C51.9245 101.549 52.0258 102.152 52.0258 102.824ZM58.7891 100.376C58.6291 100.323 58.4051 100.269 58.1171 100.216C57.8397 100.152 57.5144 100.12 57.1411 100.12C56.9277 100.12 56.6984 100.141 56.4531 100.184C56.2184 100.227 56.0531 100.264 55.9571 100.296V107H54.0211V99.032C54.3944 98.8933 54.8584 98.7653 55.4131 98.648C55.9784 98.52 56.6024 98.456 57.2851 98.456C57.4131 98.456 57.5624 98.4667 57.7331 98.488C57.9037 98.4987 58.0744 98.52 58.2451 98.552C58.4157 98.5733 58.5811 98.6053 58.7411 98.648C58.9011 98.68 59.0291 98.712 59.1251 98.744L58.7891 100.376ZM60.0102 102.856C60.0102 102.12 60.1169 101.475 60.3302 100.92C60.5542 100.365 60.8475 99.9067 61.2102 99.544C61.5729 99.1707 61.9889 98.8933 62.4582 98.712C62.9275 98.52 63.4075 98.424 63.8982 98.424C65.0502 98.424 65.9462 98.7813 66.5862 99.496C67.2369 100.211 67.5622 101.277 67.5622 102.696C67.5622 102.803 67.5569 102.925 67.5462 103.064C67.5462 103.192 67.5409 103.309 67.5302 103.416H62.0102C62.0635 104.088 62.2982 104.611 62.7142 104.984C63.1409 105.347 63.7542 105.528 64.5542 105.528C65.0235 105.528 65.4502 105.485 65.8342 105.4C66.2289 105.315 66.5382 105.224 66.7622 105.128L67.0182 106.712C66.9115 106.765 66.7622 106.824 66.5702 106.888C66.3889 106.941 66.1755 106.989 65.9302 107.032C65.6955 107.085 65.4395 107.128 65.1622 107.16C64.8849 107.192 64.6022 107.208 64.3142 107.208C63.5782 107.208 62.9382 107.101 62.3942 106.888C61.8502 106.664 61.4022 106.36 61.0502 105.976C60.6982 105.581 60.4369 105.123 60.2662 104.6C60.0955 104.067 60.0102 103.485 60.0102 102.856ZM65.6262 101.992C65.6262 101.725 65.5889 101.475 65.5142 101.24C65.4395 100.995 65.3275 100.787 65.1782 100.616C65.0395 100.435 64.8635 100.296 64.6502 100.2C64.4475 100.093 64.2022 100.04 63.9142 100.04C63.6155 100.04 63.3542 100.099 63.1302 100.216C62.9062 100.323 62.7142 100.467 62.5542 100.648C62.4049 100.829 62.2875 101.037 62.2022 101.272C62.1169 101.507 62.0582 101.747 62.0262 101.992H65.6262ZM71.7108 105.608C72.2228 105.608 72.5961 105.549 72.8308 105.432C73.0655 105.304 73.1828 105.091 73.1828 104.792C73.1828 104.515 73.0548 104.285 72.7988 104.104C72.5535 103.923 72.1428 103.725 71.5668 103.512C71.2148 103.384 70.8895 103.251 70.5908 103.112C70.3028 102.963 70.0521 102.792 69.8388 102.6C69.6255 102.408 69.4548 102.179 69.3268 101.912C69.2095 101.635 69.1508 101.299 69.1508 100.904C69.1508 100.136 69.4335 99.5333 69.9988 99.096C70.5641 98.648 71.3321 98.424 72.3028 98.424C72.7935 98.424 73.2628 98.472 73.7108 98.568C74.1588 98.6533 74.4948 98.7387 74.7188 98.824L74.3668 100.392C74.1535 100.296 73.8815 100.211 73.5508 100.136C73.2201 100.051 72.8361 100.008 72.3988 100.008C72.0041 100.008 71.6841 100.077 71.4388 100.216C71.1935 100.344 71.0708 100.547 71.0708 100.824C71.0708 100.963 71.0921 101.085 71.1348 101.192C71.1881 101.299 71.2735 101.4 71.3908 101.496C71.5081 101.581 71.6628 101.672 71.8548 101.768C72.0468 101.853 72.2815 101.944 72.5588 102.04C73.0175 102.211 73.4068 102.381 73.7268 102.552C74.0468 102.712 74.3081 102.899 74.5108 103.112C74.7241 103.315 74.8788 103.549 74.9748 103.816C75.0708 104.083 75.1188 104.403 75.1188 104.776C75.1188 105.576 74.8201 106.184 74.2228 106.6C73.6361 107.005 72.7935 107.208 71.6948 107.208C70.9588 107.208 70.3668 107.144 69.9188 107.016C69.4708 106.899 69.1561 106.803 68.9748 106.728L69.3108 105.112C69.5988 105.229 69.9401 105.341 70.3348 105.448C70.7401 105.555 71.1988 105.608 71.7108 105.608ZM79.0233 105.608C79.5353 105.608 79.9086 105.549 80.1433 105.432C80.378 105.304 80.4953 105.091 80.4953 104.792C80.4953 104.515 80.3673 104.285 80.1113 104.104C79.866 103.923 79.4553 103.725 78.8793 103.512C78.5273 103.384 78.202 103.251 77.9033 103.112C77.6153 102.963 77.3646 102.792 77.1513 102.6C76.938 102.408 76.7673 102.179 76.6393 101.912C76.522 101.635 76.4633 101.299 76.4633 100.904C76.4633 100.136 76.746 99.5333 77.3113 99.096C77.8766 98.648 78.6446 98.424 79.6153 98.424C80.106 98.424 80.5753 98.472 81.0233 98.568C81.4713 98.6533 81.8073 98.7387 82.0313 98.824L81.6793 100.392C81.466 100.296 81.194 100.211 80.8633 100.136C80.5326 100.051 80.1486 100.008 79.7113 100.008C79.3166 100.008 78.9966 100.077 78.7513 100.216C78.506 100.344 78.3833 100.547 78.3833 100.824C78.3833 100.963 78.4046 101.085 78.4473 101.192C78.5006 101.299 78.586 101.4 78.7033 101.496C78.8206 101.581 78.9753 101.672 79.1673 101.768C79.3593 101.853 79.594 101.944 79.8713 102.04C80.33 102.211 80.7193 102.381 81.0393 102.552C81.3593 102.712 81.6206 102.899 81.8233 103.112C82.0366 103.315 82.1913 103.549 82.2873 103.816C82.3833 104.083 82.4313 104.403 82.4313 104.776C82.4313 105.576 82.1326 106.184 81.5353 106.6C80.9486 107.005 80.106 107.208 79.0073 107.208C78.2713 107.208 77.6793 107.144 77.2313 107.016C76.7833 106.899 76.4686 106.803 76.2873 106.728L76.6233 105.112C76.9113 105.229 77.2526 105.341 77.6473 105.448C78.0526 105.555 78.5113 105.608 79.0233 105.608ZM23.8624 116.8C25.4731 116.8 26.7051 117.093 27.5584 117.68C28.4224 118.267 28.8544 119.184 28.8544 120.432C28.8544 121.083 28.7371 121.643 28.5024 122.112C28.2784 122.571 27.9478 122.949 27.5104 123.248C27.0731 123.536 26.5398 123.749 25.9104 123.888C25.2811 124.027 24.5611 124.096 23.7504 124.096H22.7424V128H20.7264V117.072C21.1958 116.965 21.7131 116.896 22.2784 116.864C22.8544 116.821 23.3824 116.8 23.8624 116.8ZM24.0064 118.544C23.4944 118.544 23.0731 118.56 22.7424 118.592V122.368H23.7184C24.6891 122.368 25.4358 122.235 25.9584 121.968C26.4811 121.691 26.7424 121.173 26.7424 120.416C26.7424 120.053 26.6731 119.749 26.5344 119.504C26.3958 119.259 26.2038 119.067 25.9584 118.928C25.7131 118.789 25.4198 118.693 25.0784 118.64C24.7478 118.576 24.3904 118.544 24.0064 118.544ZM33.5112 128.16C32.9352 128.149 32.4552 128.085 32.0712 127.968C31.6979 127.851 31.3992 127.685 31.1752 127.472C30.9512 127.248 30.7912 126.976 30.6952 126.656C30.6099 126.325 30.5672 125.952 30.5672 125.536V115.904L32.5032 115.584V125.168C32.5032 125.403 32.5192 125.6 32.5512 125.76C32.5939 125.92 32.6632 126.059 32.7592 126.176C32.8552 126.283 32.9832 126.368 33.1432 126.432C33.3139 126.485 33.5272 126.528 33.7832 126.56L33.5112 128.16ZM42.2132 127.744C41.8399 127.84 41.3545 127.936 40.7572 128.032C40.1599 128.139 39.5039 128.192 38.7892 128.192C38.1172 128.192 37.5519 128.096 37.0932 127.904C36.6452 127.712 36.2825 127.445 36.0052 127.104C35.7385 126.763 35.5465 126.357 35.4292 125.888C35.3119 125.408 35.2532 124.885 35.2532 124.32V119.632H37.1892V124.016C37.1892 124.912 37.3172 125.552 37.5732 125.936C37.8399 126.32 38.2985 126.512 38.9492 126.512C39.1839 126.512 39.4292 126.501 39.6852 126.48C39.9519 126.459 40.1492 126.432 40.2772 126.4V119.632H42.2132V127.744ZM46.1973 123.6C46.1973 124.421 46.3733 125.024 46.7253 125.408C47.088 125.781 47.552 125.968 48.1173 125.968C48.4266 125.968 48.7146 125.925 48.9813 125.84C49.2586 125.755 49.4826 125.653 49.6533 125.536V121.2C49.5146 121.168 49.344 121.141 49.1413 121.12C48.9386 121.088 48.6826 121.072 48.3733 121.072C47.6693 121.072 47.1306 121.307 46.7573 121.776C46.384 122.235 46.1973 122.843 46.1973 123.6ZM51.5893 127.152C51.5893 128.485 51.248 129.461 50.5653 130.08C49.8933 130.699 48.8586 131.008 47.4613 131.008C46.9493 131.008 46.448 130.965 45.9573 130.88C45.4773 130.795 45.04 130.683 44.6453 130.544L44.9973 128.896C45.328 129.035 45.7013 129.147 46.1173 129.232C46.544 129.317 47.0026 129.36 47.4933 129.36C48.272 129.36 48.8266 129.2 49.1573 128.88C49.488 128.56 49.6533 128.085 49.6533 127.456V127.136C49.4613 127.232 49.2053 127.328 48.8853 127.424C48.576 127.52 48.2186 127.568 47.8133 127.568C47.28 127.568 46.7893 127.483 46.3413 127.312C45.904 127.141 45.5253 126.891 45.2053 126.56C44.896 126.229 44.6506 125.819 44.4693 125.328C44.2986 124.827 44.2133 124.251 44.2133 123.6C44.2133 122.992 44.304 122.432 44.4853 121.92C44.6773 121.408 44.9493 120.971 45.3013 120.608C45.664 120.245 46.1013 119.963 46.6133 119.76C47.1253 119.557 47.7066 119.456 48.3573 119.456C48.9866 119.456 49.584 119.504 50.1493 119.6C50.7146 119.696 51.1946 119.797 51.5893 119.904V127.152ZM56.0043 128H54.0683V119.632H56.0043V128ZM56.2123 117.184C56.2123 117.547 56.095 117.835 55.8603 118.048C55.6256 118.261 55.3483 118.368 55.0283 118.368C54.6976 118.368 54.415 118.261 54.1803 118.048C53.9456 117.835 53.8283 117.547 53.8283 117.184C53.8283 116.811 53.9456 116.517 54.1803 116.304C54.415 116.091 54.6976 115.984 55.0283 115.984C55.3483 115.984 55.6256 116.091 55.8603 116.304C56.095 116.517 56.2123 116.811 56.2123 117.184ZM58.4742 119.904C58.8475 119.797 59.3329 119.696 59.9302 119.6C60.5275 119.504 61.1889 119.456 61.9142 119.456C62.5969 119.456 63.1675 119.552 63.6262 119.744C64.0849 119.925 64.4475 120.187 64.7142 120.528C64.9915 120.859 65.1835 121.264 65.2902 121.744C65.4075 122.213 65.4662 122.731 65.4662 123.296V128H63.5302V123.6C63.5302 123.152 63.4982 122.773 63.4342 122.464C63.3809 122.144 63.2849 121.888 63.1462 121.696C63.0182 121.493 62.8369 121.349 62.6022 121.264C62.3782 121.168 62.1009 121.12 61.7702 121.12C61.5249 121.12 61.2689 121.136 61.0022 121.168C60.7355 121.2 60.5382 121.227 60.4102 121.248V128H58.4742V119.904Z" fill="#353C46"/>
<g filter="url(#filter0_d_429_243)">
<rect x="7" y="36.8789" width="50.9114" height="50.9114" rx="8" transform="rotate(-45 7 36.8789)" fill="#F8BD4F"/>
</g>
<path d="M43 37L33 31.2265L33 42.7735L43 37ZM-1.39115e-07 38L34 38L34 36L1.39115e-07 36L-1.39115e-07 38Z" fill="#626263"/>
<defs>
<filter id="filter0_d_429_243" x="6.31372" y="4.19238" width="73.3721" height="73.373" filterUnits="userSpaceOnUse" color-interpolation-filters="sRGB">
<feFlood flood-opacity="0" result="BackgroundImageFix"/>
<feColorMatrix in="SourceAlpha" type="matrix" values="0 0 0 0 0 0 0 0 0 0 0 0 0 0 0 0 0 0 127 0" result="hardAlpha"/>
<feOffset dy="4"/>
<feGaussianBlur stdDeviation="2"/>
<feComposite in2="hardAlpha" operator="out"/>
<feColorMatrix type="matrix" values="0 0 0 0 1 0 0 0 0 0.623529 0 0 0 0 0.537255 0 0 0 0.25 0"/>
<feBlend mode="normal" in2="BackgroundImageFix" result="effect1_dropShadow_429_243"/>
<feBlend mode="normal" in="SourceGraphic" in2="effect1_dropShadow_429_243" result="shape"/>
</filter>
</defs>
</svg>
