<svg width="81" height="14" viewBox="0 0 81 14" fill="none" xmlns="http://www.w3.org/2000/svg">
<path d="M7.22856 0.412462C6.98052 1.0625 6.95486 2.09743 7.17725 2.68759C7.26278 2.90997 7.82728 3.95345 8.43455 5.01404C9.62344 7.101 9.76029 7.47734 9.70042 8.38397C9.65765 8.92281 9.34119 9.84655 9.20434 9.84655C9.16157 9.84655 9.08459 9.70115 9.02472 9.52153C8.96485 9.35047 8.22928 7.99052 7.39107 6.51083C6.55287 5.03114 5.8173 3.6712 5.76598 3.49158C5.71466 3.32052 5.63768 3.17512 5.60347 3.17512C5.56926 3.17512 5.45807 3.3975 5.35543 3.66265C5.13305 4.24426 5.09028 5.25353 5.2699 5.78382C5.32977 5.97199 5.88572 7.03257 6.51866 8.13593C7.14303 9.23928 7.69899 10.3341 7.75886 10.5565C7.89571 11.1295 7.81873 12.1046 7.57924 12.6434C7.4766 12.8915 7.35686 13.0967 7.32265 13.0967C7.27988 13.0967 7.22856 12.9855 7.19435 12.8487C7.16869 12.7033 6.53576 11.5401 5.80875 10.2571C4.49157 7.95631 4.15799 7.22074 4.15799 6.62202C4.15799 6.33977 4.14944 6.32266 3.92706 6.38254C3.40532 6.50228 2.22499 7.03257 1.70325 7.3747C1.05321 7.80235 0.437387 8.46094 0.189347 8.99124C-0.0843529 9.5814 -0.0586935 10.4367 0.249219 11.0611C0.85649 12.2927 2.55001 13.2935 4.85935 13.7981C6.03968 14.0461 8.59706 14.0718 9.71752 13.8409C11.4709 13.4731 12.8394 12.8572 13.7204 12.0276C15.756 10.1374 14.7639 7.83657 11.4025 6.63913L10.6156 6.35688L10.5557 5.98909C10.4616 5.43314 10.3932 5.29629 9.00761 2.8501C8.31481 1.61845 7.69899 0.480887 7.64767 0.326932C7.49371 -0.126384 7.43384 -0.11783 7.22856 0.412462Z" fill="#969292"/>
<path d="M19.9991 3.77313C19.4346 3.89288 18.776 4.22645 18.4509 4.55147C17.9805 5.01333 17.8009 5.50086 17.8009 6.2963C17.8095 7.16872 18.0404 7.73322 18.622 8.25496C19.0326 8.62275 19.3405 8.79381 20.9313 9.52938C21.9235 9.99125 22.3426 10.3334 22.4624 10.8038C22.642 11.4709 22.3341 12.0269 21.6241 12.3006C21.0083 12.5401 19.7339 12.4973 18.7503 12.2065C18.3055 12.0697 17.9549 12.0098 17.9121 12.0525C17.8693 12.0953 17.7924 12.3861 17.741 12.7026C17.6298 13.3697 17.6298 13.3612 18.3226 13.5664C19.7767 14.0027 21.6327 13.9513 22.6249 13.4467C23.1466 13.173 23.5572 12.7796 23.8137 12.292C24.0019 11.9157 24.0361 11.7532 24.0361 11.1288C24.0361 9.64057 23.4374 9.02474 20.9912 7.96416C19.751 7.42531 19.2977 6.98055 19.2977 6.2963C19.2977 5.54363 19.8365 5.14163 20.9228 5.07321C21.4959 5.03899 22.0689 5.11597 23.1637 5.36401C23.369 5.41533 23.4032 5.38967 23.4802 5.09031C23.5229 4.90214 23.5743 4.60278 23.5914 4.41462L23.617 4.07249L23.0611 3.91854C22.4196 3.73892 20.5636 3.65339 19.9991 3.77313Z" fill="#969292"/>
<path d="M41.5363 3.88719L41.0659 3.98983V8.09533C41.0659 12.5002 41.0659 12.466 41.5107 13.0818C41.9383 13.6548 43.0075 13.9542 44.0253 13.7831C44.3418 13.7318 44.6411 13.6377 44.6839 13.5864C44.7352 13.5266 44.7951 13.2272 44.8293 12.9022L44.8892 12.3291L44.6668 12.4146C44.3674 12.5258 43.4095 12.5258 43.1272 12.4146C43.0075 12.3719 42.8279 12.2094 42.7338 12.0554C42.5798 11.7988 42.5627 11.6192 42.5627 9.78029V7.79597H43.6661C44.2819 7.79597 44.7951 7.77031 44.8122 7.72754C44.8378 7.69333 44.8806 7.38542 44.9148 7.04329L44.9747 6.42747H43.7687H42.5713L42.5456 5.11884L42.5199 3.81877L42.2634 3.80166C42.1265 3.79311 41.7929 3.83588 41.5363 3.88719Z" fill="#969292"/>
<path d="M66.6819 3.82327C66.0319 3.93446 66.0832 3.82327 66.0832 5.10624V6.26091L65.416 6.20959C64.1587 6.0984 62.8672 6.44908 62.1231 7.10767C61.3619 7.77481 60.9085 9.38279 61.0967 10.7598C61.225 11.7007 61.4902 12.3251 61.9862 12.8725C62.585 13.5311 63.081 13.7363 64.116 13.7363C64.8515 13.7363 64.9627 13.7107 65.3391 13.4968C65.5614 13.3685 65.8009 13.1633 65.8779 13.0521C66.0832 12.7356 66.1687 12.7869 66.1687 13.2231V13.608H66.8957H67.6227L67.6056 8.7071L67.58 3.81472L67.2379 3.80616C67.0497 3.79761 66.8016 3.80616 66.6819 3.82327ZM65.7667 7.58664L66.0832 7.64651L66.0661 9.87887L66.0404 12.1112L65.6384 12.308C64.8515 12.7014 63.8936 12.6501 63.3376 12.1797C62.6448 11.5895 62.3882 10.0414 62.7988 8.88671C63.1067 7.99719 63.8081 7.53532 64.843 7.53532C65.1765 7.53532 65.5871 7.56098 65.7667 7.58664Z" fill="#969292"/>
<path d="M27.8326 6.29512C25.6943 6.73988 24.6594 8.74131 25.2153 11.3415C25.4206 12.2994 26.0193 13.112 26.8062 13.4968C27.2339 13.7107 27.3878 13.7363 28.1063 13.7363C28.8418 13.7363 28.9616 13.7107 29.3294 13.4968C29.5517 13.3685 29.7912 13.1633 29.8682 13.0521C30.0478 12.7698 30.159 12.8554 30.159 13.2745V13.608H30.8433H31.5275V10.1013V6.59448L31.3222 6.5175C30.5952 6.23525 28.6708 6.11551 27.8326 6.29512ZM30.0307 9.83611V12.1027L29.6287 12.308C29.1497 12.556 28.3458 12.6415 27.901 12.4961C27.4391 12.3422 27.0457 11.9658 26.8148 11.4526C26.6608 11.0849 26.618 10.8454 26.618 10.1868C26.6095 9.18607 26.7891 8.62157 27.2424 8.15115C27.7043 7.67217 28.1405 7.54388 29.1754 7.56098L30.0307 7.57809V9.83611Z" fill="#969292"/>
<path d="M34.8029 6.30795C34.3667 6.36782 33.8621 6.4619 33.6654 6.51322L33.3232 6.6073V10.1055V13.6123H34.0503H34.7773V10.6273V7.63368L35.1536 7.58236C35.3674 7.54815 35.855 7.53959 36.2484 7.5567C37.155 7.59947 37.5314 7.77053 37.7709 8.25806C37.9334 8.60018 37.9419 8.7798 37.9419 11.1148V13.6123H38.6689H39.396V10.8839C39.396 7.9587 39.3703 7.72776 38.9341 7.1547C38.6433 6.77837 37.9419 6.42769 37.1892 6.29084C36.3853 6.15399 35.8379 6.15399 34.8029 6.30795Z" fill="#969292"/>
<path d="M48.2317 6.2991C47.0941 6.54714 46.35 7.08599 45.9053 7.97552C45.546 8.69398 45.4434 9.30125 45.4862 10.3618C45.5546 11.7902 45.9908 12.7396 46.8632 13.3127C47.4277 13.6804 47.9751 13.8173 48.7021 13.766C49.3522 13.7147 49.8311 13.5094 50.216 13.0988L50.4726 12.8251L50.5154 13.2015L50.5582 13.5693L51.2681 13.5949L51.9694 13.6206V10.1138V6.60702L51.5247 6.47017C51.0115 6.33332 49.7285 6.17081 49.1469 6.17936C48.9331 6.17936 48.5225 6.23923 48.2317 6.2991ZM50.3871 9.8401V12.1067L49.9851 12.3119C49.3778 12.6284 48.5396 12.6626 48.0435 12.3975C47.5304 12.1323 47.2139 11.7132 47.0514 11.0889C46.7691 9.99405 47.0001 8.7453 47.5988 8.14658C48.0692 7.67616 48.5054 7.54786 49.5318 7.56497L50.3871 7.58207V9.8401Z" fill="#969292"/>
<path d="M55.1599 6.30795C54.7237 6.36782 54.219 6.4619 54.0223 6.51322L53.6802 6.6073V10.1055V13.6123H54.4072H55.1342V10.6273V7.64223L55.3994 7.59091C55.8441 7.50538 57.0501 7.53104 57.3666 7.63368C57.7686 7.77053 58.1107 8.11265 58.2133 8.47188C58.2561 8.64295 58.2989 9.86604 58.2989 11.1918V13.6123H59.0772H59.847L59.8213 10.8496L59.7957 8.09555L59.5733 7.61657C59.2311 6.881 58.6153 6.48756 57.5376 6.29084C56.7422 6.15399 56.1862 6.15399 55.1599 6.30795Z" fill="#969292"/>
<path d="M71.2583 6.30544C69.6247 6.69888 68.8378 8.00751 68.9319 10.1886C69.0003 12.0275 69.6418 13.0111 71.1129 13.5414C71.8399 13.8065 73.4222 13.8065 74.269 13.5414C74.671 13.4216 74.8934 13.3019 74.9276 13.1992C74.996 12.9769 75.15 12.0446 75.1243 12.0189C75.1158 12.0104 74.8164 12.1045 74.4657 12.2242C73.9183 12.4124 73.6788 12.4466 72.8406 12.4551C71.9939 12.4551 71.8143 12.4295 71.5149 12.267C70.9247 11.9505 70.4458 11.2919 70.4458 10.7873C70.4458 10.6162 70.4885 10.6162 72.8748 10.6162H75.3125L75.3724 10.2142C75.5178 9.22205 75.2184 7.83645 74.7138 7.21207C74.0124 6.34821 72.6097 5.98042 71.2583 6.30544ZM72.9005 7.57985C73.0801 7.65683 73.2939 7.77658 73.388 7.86211C73.6275 8.07593 73.867 8.64044 73.867 9.00822V9.33324H72.1564H70.4458V9.13652C70.4458 7.94764 71.7715 7.10943 72.9005 7.57985Z" fill="#969292"/>
<path d="M78.313 6.26518C77.6202 6.35071 77.0215 6.49612 76.8846 6.61586C76.7991 6.68429 76.7734 7.47972 76.7734 10.1568V13.6123H77.5432H78.313L78.3301 10.5931L78.3558 7.58236L79.4762 7.5567L80.5967 7.53104L80.6566 7.1376C80.7763 6.26518 80.7934 6.29084 80.0493 6.22242C79.2966 6.16255 79.0742 6.1711 78.313 6.26518Z" fill="#969292"/>
</svg>
