<svg width="93" height="18" viewBox="0 0 93 18" fill="none" xmlns="http://www.w3.org/2000/svg">
<path d="M0 8.99982V17.9998H9.15428H18.3189L18.288 8.99982L18.2571 -0.000183105H9.13371H0V8.99982ZM14.9966 9.02039L14.9657 9.5141H9.13371C3.35314 9.5141 3.29143 9.5141 3.28114 9.30839C3.27086 9.19524 3.26057 8.97925 3.25029 8.81467L3.21943 8.53696H9.12343H15.0274L14.9966 9.02039Z" fill="#969292"/>
<path d="M26.0542 0.102951C24.9124 0.349808 23.9662 1.03895 23.8119 1.74867C23.6782 2.36581 23.8427 2.96238 24.2747 3.39438C24.7787 3.89838 25.437 4.13495 27.3913 4.51552C29.1193 4.84467 29.5719 5.01952 29.7467 5.41038C29.8496 5.61609 29.829 5.70867 29.6644 5.94524C29.2839 6.45952 28.7696 6.62409 27.5662 6.62409C26.4347 6.62409 25.4267 6.39781 24.5524 5.94524C24.3262 5.83209 24.141 5.76009 24.1204 5.78067C24.0587 5.84238 23.6576 6.79895 23.6576 6.88124C23.6576 6.99438 24.6862 7.44695 25.4576 7.68352C26.3319 7.95095 28.7284 7.95095 29.4896 7.68352C30.981 7.15895 31.6599 5.89381 31.0633 4.72124C30.6313 3.88809 29.7364 3.48695 27.4119 3.07552C25.4782 2.74638 24.9536 2.40695 25.4164 1.81038C25.9307 1.15209 27.8644 1.19324 29.9833 1.89267C30.1582 1.95438 30.2404 1.87209 30.4667 1.40924L30.7444 0.843523L30.2404 0.627522C29.973 0.51438 29.4793 0.339522 29.1399 0.257237C28.4199 0.0618081 26.6507 -0.0307631 26.0542 0.102951Z" fill="#969292"/>
<path d="M35.6708 0.11265C34.5188 0.380079 33.3462 1.33665 32.8422 2.41665C32.5851 2.96179 32.5542 3.15722 32.5542 4.01094C32.5542 4.89551 32.5851 5.04979 32.8936 5.67722C34.3851 8.74237 39.4045 8.73208 40.9165 5.65665C41.1633 5.15265 41.1942 4.97779 41.1942 4.01094C41.1942 3.05436 41.1633 2.85894 40.9268 2.35494C40.2171 0.842936 38.7462 -0.0107784 36.8948 0.0097928C36.4319 0.0200787 35.8765 0.0612216 35.6708 0.11265ZM38.2936 1.56294C38.9108 1.83036 39.5279 2.51951 39.7028 3.13665C39.8982 3.83608 39.7851 4.82351 39.4456 5.39951C38.5713 6.89094 36.0822 7.14808 34.7656 5.88294C33.4491 4.60751 33.7988 2.43722 35.4548 1.60408C36.2776 1.19265 37.3885 1.17208 38.2936 1.56294Z" fill="#969292"/>
<path d="M45.7306 0.114089C45.0517 0.27866 44.1363 0.834089 43.6117 1.41009C42.2334 2.92209 42.2849 5.26723 43.7351 6.71752C44.9797 7.96209 47.1911 8.33238 49.1969 7.63295C49.9374 7.36552 50.6369 6.91295 50.5443 6.75866C50.5031 6.68666 50.3386 6.43981 50.174 6.20323L49.886 5.78152L49.3306 6.07981C47.7157 6.95409 45.7203 6.78952 44.7534 5.69923C44.3009 5.18495 44.126 4.67066 44.126 3.86838C44.126 2.53123 45.0311 1.56437 46.502 1.3278C47.4894 1.17352 48.4357 1.3998 49.7934 2.13009C49.8346 2.15066 50.0094 1.93466 50.2049 1.63637C50.534 1.12209 50.534 1.10152 50.3386 0.957518C49.958 0.669518 49.166 0.309517 48.5797 0.155231C47.9317 -0.00934029 46.3683 -0.029912 45.7306 0.114089Z" fill="#969292"/>
<path d="M52.0463 3.95905V7.71334L52.2828 7.72363C52.4063 7.73391 52.7457 7.7442 53.0234 7.7442L53.5377 7.76477V4.01048V0.256197L52.7971 0.225339L52.0463 0.194482V3.95905Z" fill="#969292"/>
<path d="M55.5432 3.97963V7.76477L59.1638 7.75448L62.7946 7.7442V7.13734V6.53049L59.9455 6.49963L57.0861 6.47906V5.50191V4.52477H59.1946H61.3032V3.90763V3.29049H59.1946H57.0861V2.38534V1.49049L59.8118 1.52134L62.5375 1.5522V0.873343V0.204772H59.0404H55.5432V3.97963Z" fill="#969292"/>
<path d="M63.5651 0.875409V1.54398H65.0565H66.5479V4.61941V7.69484L67.2782 7.73598C67.6793 7.75655 68.0291 7.74626 68.0496 7.72569C68.0702 7.70512 68.0908 6.29598 68.0908 4.60912V1.54398H69.5822H71.0736V0.875409V0.206838H67.3193H63.5651V0.875409Z" fill="#969292"/>
<path d="M72.3295 3.9706L72.3604 7.73517H75.4461C77.1432 7.73517 78.7067 7.72488 78.9227 7.72488L79.3032 7.7146V7.09745V6.48031H76.4232H73.5432V5.50317V4.52602L75.6724 4.50545L77.8015 4.4746V3.88831L77.8118 3.29174H75.6827H73.5432V2.41745V1.54317L76.2998 1.52259L79.0461 1.49174L79.077 0.843738L79.1078 0.206023H75.7032H72.309L72.3295 3.9706Z" fill="#969292"/>
<path d="M26.2184 10.3164C25.0355 10.7175 24.2332 11.4272 23.7395 12.5072C23.5441 12.929 23.5029 13.1861 23.5029 14.0398C23.5029 14.9347 23.5441 15.1404 23.7704 15.6341C24.5109 17.1872 25.9509 17.9998 27.9566 17.9998C29.0161 17.9998 29.9932 17.7838 30.8469 17.3518L31.5052 17.0227L31.5155 15.5312L31.5258 14.0398L30.7852 14.009L30.0344 13.9781V15.1198V16.2615L29.6744 16.4158C28.6561 16.8375 27.1646 16.7964 26.2286 16.3232C24.5315 15.449 24.4698 12.8158 26.1258 11.8078C27.0721 11.2318 28.7281 11.2524 29.9315 11.8695L30.6515 12.2295L31.0115 11.6947C31.4229 11.0878 31.4332 11.0981 30.5281 10.6352C29.3349 10.0284 27.4732 9.89467 26.2184 10.3164Z" fill="#969292"/>
<path d="M33.2739 14.0189V17.7423L36.9048 17.7732L40.5254 17.7938V17.1766V16.5595H37.6454H34.7654V15.5309V14.5023H36.9048H39.0339V13.8852V13.268H36.9048H34.7654V12.3938V11.5195H37.5425H40.3196V10.9023V10.2852H36.8019H33.2739V14.0189Z" fill="#969292"/>
<path d="M41.7593 14.0395V17.7938H42.3764H42.9936L43.0141 16.4772C43.0141 15.7572 43.0347 14.492 43.0347 13.6589C43.045 12.8155 43.0656 12.1366 43.0964 12.1366C43.1273 12.1469 44.2381 13.412 45.565 14.9652L47.9821 17.7835H48.733L49.4736 17.7938V14.0395V10.2852H48.7433H48.0027L48.0541 13.1138C48.0747 14.6669 48.0953 15.932 48.085 15.9115C48.0747 15.9012 47.3033 15.0063 46.3776 13.9366C45.4518 12.8566 44.3718 11.6018 43.9707 11.1389L43.2507 10.2955L42.5101 10.2852H41.7593V14.0395Z" fill="#969292"/>
<path d="M51.5317 14.0395V17.7938H55.0289H58.526V17.1766V16.5595H55.646H52.766V15.5309V14.5023H54.926H57.086V13.8852V13.268H54.926H52.766V12.3938V11.5195H55.5432H58.3203V10.9023V10.2852H54.926H51.5317V14.0395Z" fill="#969292"/>
<path d="M60.0684 14.0395V17.7938H60.7884H61.5084V16.4052V15.0166H62.6192L63.7198 15.0269L64.7484 16.4052L65.7769 17.7835H66.6718L67.5769 17.7938L66.4866 16.4566C65.4684 15.2018 65.3244 14.9138 65.6844 14.9138C66.1369 14.9138 66.9701 14.2658 67.2786 13.6589C67.7106 12.8155 67.3918 11.3652 66.6512 10.8098C65.9929 10.3263 65.6741 10.2852 62.7838 10.2852H60.0684V14.0395ZM65.7872 11.8383C66.3735 12.4349 66.1266 13.4532 65.3449 13.6692C65.1289 13.7309 64.1826 13.7823 63.2364 13.7823H61.5084V12.6406V11.5092L63.5141 11.54C65.5095 11.5709 65.5198 11.5709 65.7872 11.8383Z" fill="#969292"/>
<path d="M69.9535 13.9058C68.9764 15.9012 68.1433 17.5983 68.1227 17.66C68.0815 17.7629 68.2667 17.7938 68.8324 17.7938H69.5935L70.0255 16.9195L70.4575 16.0452H72.4941H74.5307L74.9627 16.9195L75.3947 17.7938H76.1147C76.5055 17.7938 76.8347 17.7629 76.8347 17.732C76.8347 17.7012 76.0221 16.0246 75.0347 14.0086L73.245 10.3366L72.4838 10.3058L71.733 10.2749L69.9535 13.9058ZM73.1935 13.2166C73.5535 13.988 73.8518 14.6566 73.8518 14.708C73.8518 14.7698 73.3067 14.8109 72.4633 14.8109C71.7021 14.8109 71.0747 14.7903 71.0747 14.7595C71.0747 14.7389 71.2598 14.3069 71.4964 13.8132C71.733 13.3092 72.0313 12.6612 72.165 12.3629C72.2987 12.0749 72.4324 11.828 72.4633 11.828C72.5044 11.828 72.8233 12.4555 73.1935 13.2166Z" fill="#969292"/>
<path d="M78.0684 14.0395V17.7938H81.2055H84.3426V17.1766V16.5595H81.8226H79.3026V13.4223V10.2852H78.6855H78.0684V14.0395Z" fill="#969292"/>
<path d="M85.2896 14.0086L85.3205 17.7423L88.9513 17.7732L92.5719 17.7938V17.1766V16.5595H89.6919H86.8119V15.5309V14.5023H88.9205H91.029V13.8852V13.268H88.9205H86.8119V12.3938V11.5195H89.589H92.3662V10.9023V10.2852H88.8176H85.269L85.2896 14.0086Z" fill="#969292"/>
</svg>
