<svg width="201" height="198" viewBox="0 0 201 198" fill="none" xmlns="http://www.w3.org/2000/svg">
<g filter="url(#filter0_d_624_234)">
<rect x="9" y="141" width="183" height="48" rx="10" fill="white"/>
</g>
<path d="M65.144 171.239C64.3653 171.239 63.656 171.111 63.016 170.855C62.376 170.599 61.8267 170.226 61.368 169.735C60.9093 169.244 60.552 168.642 60.296 167.927C60.0507 167.202 59.928 166.375 59.928 165.447C59.928 164.519 60.0667 163.698 60.344 162.983C60.632 162.258 61.016 161.65 61.496 161.159C61.976 160.668 62.536 160.295 63.176 160.039C63.816 159.783 64.4987 159.655 65.224 159.655C65.6827 159.655 66.0933 159.687 66.456 159.751C66.8293 159.815 67.1493 159.89 67.416 159.975C67.6933 160.06 67.9173 160.146 68.088 160.231C68.2587 160.316 68.376 160.38 68.44 160.423L67.992 161.703C67.896 161.639 67.7573 161.57 67.576 161.495C67.3947 161.42 67.1867 161.346 66.952 161.271C66.728 161.196 66.4773 161.138 66.2 161.095C65.9333 161.042 65.6613 161.015 65.384 161.015C64.7973 161.015 64.2693 161.116 63.8 161.319C63.3307 161.522 62.9307 161.815 62.6 162.199C62.2693 162.583 62.0133 163.052 61.832 163.607C61.6613 164.151 61.576 164.764 61.576 165.447C61.576 166.108 61.6507 166.711 61.8 167.255C61.96 167.799 62.1947 168.268 62.504 168.663C62.8133 169.047 63.1973 169.346 63.656 169.559C64.1253 169.772 64.6693 169.879 65.288 169.879C66.0027 169.879 66.5947 169.804 67.064 169.655C67.5333 169.506 67.8853 169.372 68.12 169.255L68.52 170.535C68.4453 170.588 68.312 170.658 68.12 170.743C67.928 170.818 67.688 170.892 67.4 170.967C67.112 171.042 66.776 171.106 66.392 171.159C66.008 171.212 65.592 171.239 65.144 171.239ZM77.3115 166.839C77.3115 167.5 77.2155 168.098 77.0235 168.631C76.8315 169.164 76.5595 169.623 76.2075 170.007C75.8662 170.391 75.4555 170.69 74.9755 170.903C74.4955 171.106 73.9728 171.207 73.4075 171.207C72.8422 171.207 72.3195 171.106 71.8395 170.903C71.3595 170.69 70.9435 170.391 70.5915 170.007C70.2502 169.623 69.9835 169.164 69.7915 168.631C69.5995 168.098 69.5035 167.5 69.5035 166.839C69.5035 166.188 69.5995 165.596 69.7915 165.063C69.9835 164.519 70.2502 164.055 70.5915 163.671C70.9435 163.287 71.3595 162.994 71.8395 162.791C72.3195 162.578 72.8422 162.471 73.4075 162.471C73.9728 162.471 74.4955 162.578 74.9755 162.791C75.4555 162.994 75.8662 163.287 76.2075 163.671C76.5595 164.055 76.8315 164.519 77.0235 165.063C77.2155 165.596 77.3115 166.188 77.3115 166.839ZM75.7595 166.839C75.7595 165.9 75.5462 165.159 75.1195 164.615C74.7035 164.06 74.1328 163.783 73.4075 163.783C72.6822 163.783 72.1062 164.06 71.6795 164.615C71.2635 165.159 71.0555 165.9 71.0555 166.839C71.0555 167.778 71.2635 168.524 71.6795 169.079C72.1062 169.623 72.6822 169.895 73.4075 169.895C74.1328 169.895 74.7035 169.623 75.1195 169.079C75.5462 168.524 75.7595 167.778 75.7595 166.839ZM79.405 162.919C79.7463 162.834 80.1997 162.743 80.765 162.647C81.3303 162.551 81.981 162.503 82.717 162.503C83.3783 162.503 83.9277 162.599 84.365 162.791C84.8023 162.972 85.149 163.234 85.405 163.575C85.6717 163.906 85.8583 164.306 85.965 164.775C86.0717 165.244 86.125 165.762 86.125 166.327V170.999H84.637V166.647C84.637 166.135 84.5997 165.698 84.525 165.335C84.461 164.972 84.349 164.679 84.189 164.455C84.029 164.231 83.8157 164.071 83.549 163.975C83.2823 163.868 82.9517 163.815 82.557 163.815C82.397 163.815 82.2317 163.82 82.061 163.831C81.8903 163.842 81.725 163.858 81.565 163.879C81.4157 163.89 81.277 163.906 81.149 163.927C81.0317 163.948 80.9463 163.964 80.893 163.975V170.999H79.405V162.919ZM91.8405 158.583C92.2778 158.583 92.6512 158.615 92.9605 158.679C93.2805 158.743 93.5045 158.802 93.6325 158.855L93.3605 160.135C93.2325 160.071 93.0512 160.012 92.8165 159.959C92.5818 159.895 92.2938 159.863 91.9525 159.863C91.2592 159.863 90.7738 160.055 90.4965 160.439C90.2192 160.812 90.0805 161.319 90.0805 161.959V162.679H93.2805V163.927H90.0805V170.999H88.5925V161.927C88.5925 160.86 88.8538 160.039 89.3765 159.463C89.8992 158.876 90.7205 158.583 91.8405 158.583ZM96.2524 170.999H94.7644V162.679H96.2524V170.999ZM95.5004 161.175C95.2337 161.175 95.0044 161.09 94.8124 160.919C94.631 160.738 94.5404 160.498 94.5404 160.199C94.5404 159.9 94.631 159.666 94.8124 159.495C95.0044 159.314 95.2337 159.223 95.5004 159.223C95.767 159.223 95.991 159.314 96.1724 159.495C96.3644 159.666 96.4604 159.9 96.4604 160.199C96.4604 160.498 96.3644 160.738 96.1724 160.919C95.991 161.09 95.767 161.175 95.5004 161.175ZM101.883 162.503C102.011 162.503 102.155 162.514 102.315 162.535C102.486 162.546 102.651 162.567 102.811 162.599C102.971 162.62 103.115 162.647 103.243 162.679C103.382 162.7 103.483 162.722 103.547 162.743L103.291 164.039C103.174 163.996 102.977 163.948 102.699 163.895C102.433 163.831 102.086 163.799 101.659 163.799C101.382 163.799 101.105 163.831 100.827 163.895C100.561 163.948 100.385 163.986 100.299 164.007V170.999H98.8113V163.031C99.1633 162.903 99.6006 162.786 100.123 162.679C100.646 162.562 101.233 162.503 101.883 162.503ZM104.983 162.919C105.324 162.834 105.772 162.743 106.327 162.647C106.892 162.551 107.543 162.503 108.279 162.503C108.812 162.503 109.26 162.578 109.623 162.727C109.986 162.866 110.29 163.074 110.535 163.351C110.61 163.298 110.727 163.223 110.887 163.127C111.047 163.031 111.244 162.94 111.479 162.855C111.714 162.759 111.975 162.679 112.263 162.615C112.551 162.54 112.86 162.503 113.191 162.503C113.831 162.503 114.354 162.599 114.759 162.791C115.164 162.972 115.479 163.234 115.703 163.575C115.938 163.916 116.092 164.322 116.167 164.791C116.252 165.26 116.295 165.772 116.295 166.327V170.999H114.807V166.647C114.807 166.156 114.78 165.735 114.727 165.383C114.684 165.031 114.594 164.738 114.455 164.503C114.327 164.268 114.146 164.098 113.911 163.991C113.687 163.874 113.394 163.815 113.031 163.815C112.53 163.815 112.114 163.884 111.783 164.023C111.463 164.151 111.244 164.268 111.127 164.375C111.212 164.652 111.276 164.956 111.319 165.287C111.362 165.618 111.383 165.964 111.383 166.327V170.999H109.895V166.647C109.895 166.156 109.868 165.735 109.815 165.383C109.762 165.031 109.666 164.738 109.527 164.503C109.399 164.268 109.218 164.098 108.983 163.991C108.759 163.874 108.471 163.815 108.119 163.815C107.97 163.815 107.81 163.82 107.639 163.831C107.468 163.842 107.303 163.858 107.143 163.879C106.994 163.89 106.855 163.906 106.727 163.927C106.599 163.948 106.514 163.964 106.471 163.975V170.999H104.983V162.919ZM121.58 169.927C121.932 169.927 122.242 169.922 122.508 169.911C122.786 169.89 123.015 169.858 123.196 169.815V167.335C123.09 167.282 122.914 167.239 122.668 167.207C122.434 167.164 122.146 167.143 121.804 167.143C121.58 167.143 121.34 167.159 121.084 167.191C120.839 167.223 120.61 167.292 120.396 167.399C120.194 167.495 120.023 167.634 119.884 167.815C119.746 167.986 119.676 168.215 119.676 168.503C119.676 169.036 119.847 169.41 120.188 169.623C120.53 169.826 120.994 169.927 121.58 169.927ZM121.452 162.471C122.05 162.471 122.551 162.551 122.956 162.711C123.372 162.86 123.703 163.079 123.948 163.367C124.204 163.644 124.386 163.98 124.492 164.375C124.599 164.759 124.652 165.186 124.652 165.655V170.855C124.524 170.876 124.343 170.908 124.108 170.951C123.884 170.983 123.628 171.015 123.34 171.047C123.052 171.079 122.738 171.106 122.396 171.127C122.066 171.159 121.735 171.175 121.404 171.175C120.935 171.175 120.503 171.127 120.108 171.031C119.714 170.935 119.372 170.786 119.084 170.583C118.796 170.37 118.572 170.092 118.412 169.751C118.252 169.41 118.172 168.999 118.172 168.519C118.172 168.06 118.263 167.666 118.444 167.335C118.636 167.004 118.892 166.738 119.212 166.535C119.532 166.332 119.906 166.183 120.332 166.087C120.759 165.991 121.207 165.943 121.676 165.943C121.826 165.943 121.98 165.954 122.14 165.975C122.3 165.986 122.45 166.007 122.588 166.039C122.738 166.06 122.866 166.082 122.972 166.103C123.079 166.124 123.154 166.14 123.196 166.151V165.735C123.196 165.49 123.17 165.25 123.116 165.015C123.063 164.77 122.967 164.556 122.828 164.375C122.69 164.183 122.498 164.034 122.252 163.927C122.018 163.81 121.708 163.751 121.324 163.751C120.834 163.751 120.402 163.788 120.028 163.863C119.666 163.927 119.394 163.996 119.212 164.071L119.036 162.839C119.228 162.754 119.548 162.674 119.996 162.599C120.444 162.514 120.93 162.471 121.452 162.471ZM128.516 162.679H131.668V163.927H128.516V167.767C128.516 168.183 128.548 168.53 128.612 168.807C128.676 169.074 128.772 169.287 128.9 169.447C129.028 169.596 129.188 169.703 129.38 169.767C129.572 169.831 129.796 169.863 130.052 169.863C130.5 169.863 130.857 169.815 131.124 169.719C131.401 169.612 131.593 169.538 131.7 169.495L131.988 170.727C131.838 170.802 131.577 170.892 131.204 170.999C130.83 171.116 130.404 171.175 129.924 171.175C129.358 171.175 128.889 171.106 128.516 170.967C128.153 170.818 127.86 170.599 127.636 170.311C127.412 170.023 127.252 169.671 127.156 169.255C127.07 168.828 127.028 168.338 127.028 167.783V160.359L128.516 160.103V162.679ZM135.049 170.999H133.561V162.679H135.049V170.999ZM134.297 161.175C134.031 161.175 133.801 161.09 133.609 160.919C133.428 160.738 133.337 160.498 133.337 160.199C133.337 159.9 133.428 159.666 133.609 159.495C133.801 159.314 134.031 159.223 134.297 159.223C134.564 159.223 134.788 159.314 134.969 159.495C135.161 159.666 135.257 159.9 135.257 160.199C135.257 160.498 135.161 160.738 134.969 160.919C134.788 161.09 134.564 161.175 134.297 161.175ZM144.952 166.839C144.952 167.5 144.856 168.098 144.664 168.631C144.472 169.164 144.2 169.623 143.848 170.007C143.507 170.391 143.096 170.69 142.616 170.903C142.136 171.106 141.613 171.207 141.048 171.207C140.483 171.207 139.96 171.106 139.48 170.903C139 170.69 138.584 170.391 138.232 170.007C137.891 169.623 137.624 169.164 137.432 168.631C137.24 168.098 137.144 167.5 137.144 166.839C137.144 166.188 137.24 165.596 137.432 165.063C137.624 164.519 137.891 164.055 138.232 163.671C138.584 163.287 139 162.994 139.48 162.791C139.96 162.578 140.483 162.471 141.048 162.471C141.613 162.471 142.136 162.578 142.616 162.791C143.096 162.994 143.507 163.287 143.848 163.671C144.2 164.055 144.472 164.519 144.664 165.063C144.856 165.596 144.952 166.188 144.952 166.839ZM143.4 166.839C143.4 165.9 143.187 165.159 142.76 164.615C142.344 164.06 141.773 163.783 141.048 163.783C140.323 163.783 139.747 164.06 139.32 164.615C138.904 165.159 138.696 165.9 138.696 166.839C138.696 167.778 138.904 168.524 139.32 169.079C139.747 169.623 140.323 169.895 141.048 169.895C141.773 169.895 142.344 169.623 142.76 169.079C143.187 168.524 143.4 167.778 143.4 166.839ZM147.046 162.919C147.387 162.834 147.84 162.743 148.406 162.647C148.971 162.551 149.622 162.503 150.358 162.503C151.019 162.503 151.568 162.599 152.006 162.791C152.443 162.972 152.79 163.234 153.046 163.575C153.312 163.906 153.499 164.306 153.606 164.775C153.712 165.244 153.766 165.762 153.766 166.327V170.999H152.278V166.647C152.278 166.135 152.24 165.698 152.166 165.335C152.102 164.972 151.99 164.679 151.83 164.455C151.67 164.231 151.456 164.071 151.19 163.975C150.923 163.868 150.592 163.815 150.198 163.815C150.038 163.815 149.872 163.82 149.702 163.831C149.531 163.842 149.366 163.858 149.206 163.879C149.056 163.89 148.918 163.906 148.79 163.927C148.672 163.948 148.587 163.964 148.534 163.975V170.999H147.046V162.919Z" fill="#626263"/>
<rect x="27" y="155.999" width="18" height="18" rx="9" stroke="#295BB7" stroke-width="2"/>
<g filter="url(#filter1_d_624_234)">
<rect x="9" y="75" width="183" height="48" rx="10" fill="white"/>
</g>
<path d="M63.32 93.799C64.8773 93.799 66.072 94.0977 66.904 94.695C67.7467 95.2817 68.168 96.1617 68.168 97.335C68.168 97.975 68.0507 98.5244 67.816 98.983C67.592 99.431 67.2613 99.799 66.824 100.087C66.3973 100.364 65.8747 100.567 65.256 100.695C64.6373 100.823 63.9387 100.887 63.16 100.887H61.928V104.999H60.376V94.071C60.8133 93.9644 61.2987 93.895 61.832 93.863C62.376 93.8204 62.872 93.799 63.32 93.799ZM63.448 95.159C62.7867 95.159 62.28 95.175 61.928 95.207V99.559H63.096C63.6293 99.559 64.1093 99.527 64.536 99.463C64.9627 99.3884 65.32 99.271 65.608 99.111C65.9067 98.9404 66.136 98.711 66.296 98.423C66.456 98.135 66.536 97.767 66.536 97.319C66.536 96.8924 66.4507 96.5404 66.28 96.263C66.12 95.9857 65.896 95.767 65.608 95.607C65.3307 95.4364 65.0053 95.319 64.632 95.255C64.2587 95.191 63.864 95.159 63.448 95.159ZM72.5335 103.927C72.8855 103.927 73.1948 103.922 73.4615 103.911C73.7388 103.89 73.9682 103.858 74.1495 103.815V101.335C74.0428 101.282 73.8668 101.239 73.6215 101.207C73.3868 101.164 73.0988 101.143 72.7575 101.143C72.5335 101.143 72.2935 101.159 72.0375 101.191C71.7922 101.223 71.5628 101.292 71.3495 101.399C71.1468 101.495 70.9762 101.634 70.8375 101.815C70.6988 101.986 70.6295 102.215 70.6295 102.503C70.6295 103.036 70.8002 103.41 71.1415 103.623C71.4828 103.826 71.9468 103.927 72.5335 103.927ZM72.4055 96.471C73.0028 96.471 73.5042 96.551 73.9095 96.711C74.3255 96.8604 74.6562 97.079 74.9015 97.367C75.1575 97.6444 75.3388 97.9804 75.4455 98.375C75.5522 98.759 75.6055 99.1857 75.6055 99.655V104.855C75.4775 104.876 75.2962 104.908 75.0615 104.951C74.8375 104.983 74.5815 105.015 74.2935 105.047C74.0055 105.079 73.6908 105.106 73.3495 105.127C73.0188 105.159 72.6882 105.175 72.3575 105.175C71.8882 105.175 71.4562 105.127 71.0615 105.031C70.6668 104.935 70.3255 104.786 70.0375 104.583C69.7495 104.37 69.5255 104.092 69.3655 103.751C69.2055 103.41 69.1255 102.999 69.1255 102.519C69.1255 102.06 69.2162 101.666 69.3975 101.335C69.5895 101.004 69.8455 100.738 70.1655 100.535C70.4855 100.332 70.8588 100.183 71.2855 100.087C71.7122 99.991 72.1602 99.943 72.6295 99.943C72.7788 99.943 72.9335 99.9537 73.0935 99.975C73.2535 99.9857 73.4028 100.007 73.5415 100.039C73.6908 100.06 73.8188 100.082 73.9255 100.103C74.0322 100.124 74.1068 100.14 74.1495 100.151V99.735C74.1495 99.4897 74.1228 99.2497 74.0695 99.015C74.0162 98.7697 73.9202 98.5564 73.7815 98.375C73.6428 98.183 73.4508 98.0337 73.2055 97.927C72.9708 97.8097 72.6615 97.751 72.2775 97.751C71.7868 97.751 71.3548 97.7884 70.9815 97.863C70.6188 97.927 70.3468 97.9964 70.1655 98.071L69.9895 96.839C70.1815 96.7537 70.5015 96.6737 70.9495 96.599C71.3975 96.5137 71.8828 96.471 72.4055 96.471ZM76.8665 106.551C76.9838 106.604 77.1332 106.652 77.3145 106.695C77.5065 106.748 77.6932 106.775 77.8745 106.775C78.4612 106.775 78.9198 106.642 79.2505 106.375C79.5812 106.119 79.8798 105.698 80.1465 105.111C79.4745 103.831 78.8452 102.476 78.2585 101.047C77.6825 99.607 77.2025 98.151 76.8185 96.679H78.4185C78.5358 97.159 78.6745 97.6764 78.8345 98.231C79.0052 98.7857 79.1918 99.3564 79.3945 99.943C79.5972 100.53 79.8158 101.116 80.0505 101.703C80.2852 102.29 80.5305 102.855 80.7865 103.399C81.1918 102.279 81.5438 101.17 81.8425 100.071C82.1412 98.9724 82.4238 97.8417 82.6905 96.679H84.2265C83.8425 98.247 83.4158 99.7564 82.9465 101.207C82.4772 102.647 81.9705 103.996 81.4265 105.255C81.2132 105.735 80.9892 106.146 80.7545 106.487C80.5305 106.839 80.2798 107.127 80.0025 107.351C79.7252 107.575 79.4105 107.74 79.0585 107.847C78.7172 107.954 78.3278 108.007 77.8905 108.007C77.7732 108.007 77.6505 107.996 77.5225 107.975C77.3945 107.964 77.2665 107.943 77.1385 107.911C77.0212 107.89 76.9092 107.863 76.8025 107.831C76.7065 107.799 76.6372 107.772 76.5945 107.751L76.8665 106.551ZM85.7956 96.919C86.137 96.8337 86.585 96.743 87.1396 96.647C87.705 96.551 88.3556 96.503 89.0916 96.503C89.625 96.503 90.073 96.5777 90.4356 96.727C90.7983 96.8657 91.1023 97.0737 91.3476 97.351C91.4223 97.2977 91.5396 97.223 91.6996 97.127C91.8596 97.031 92.057 96.9404 92.2916 96.855C92.5263 96.759 92.7876 96.679 93.0756 96.615C93.3636 96.5404 93.673 96.503 94.0036 96.503C94.6436 96.503 95.1663 96.599 95.5716 96.791C95.977 96.9724 96.2916 97.2337 96.5156 97.575C96.7503 97.9164 96.905 98.3217 96.9796 98.791C97.065 99.2604 97.1076 99.7724 97.1076 100.327V104.999H95.6196V100.647C95.6196 100.156 95.593 99.735 95.5396 99.383C95.497 99.031 95.4063 98.7377 95.2676 98.503C95.1396 98.2684 94.9583 98.0977 94.7236 97.991C94.4996 97.8737 94.2063 97.815 93.8436 97.815C93.3423 97.815 92.9263 97.8844 92.5956 98.023C92.2756 98.151 92.057 98.2684 91.9396 98.375C92.025 98.6524 92.089 98.9564 92.1316 99.287C92.1743 99.6177 92.1956 99.9644 92.1956 100.327V104.999H90.7076V100.647C90.7076 100.156 90.681 99.735 90.6276 99.383C90.5743 99.031 90.4783 98.7377 90.3396 98.503C90.2116 98.2684 90.0303 98.0977 89.7956 97.991C89.5716 97.8737 89.2836 97.815 88.9316 97.815C88.7823 97.815 88.6223 97.8204 88.4516 97.831C88.281 97.8417 88.1156 97.8577 87.9556 97.879C87.8063 97.8897 87.6676 97.9057 87.5396 97.927C87.4116 97.9484 87.3263 97.9644 87.2836 97.975V104.999H85.7956V96.919ZM99.1129 100.855C99.1129 100.119 99.2195 99.479 99.4329 98.935C99.6462 98.3804 99.9289 97.9217 100.281 97.559C100.633 97.1964 101.038 96.9244 101.497 96.743C101.956 96.5617 102.425 96.471 102.905 96.471C104.025 96.471 104.884 96.823 105.481 97.527C106.078 98.2204 106.377 99.2817 106.377 100.711C106.377 100.775 106.377 100.86 106.377 100.967C106.377 101.063 106.372 101.154 106.361 101.239H100.665C100.729 102.103 100.98 102.759 101.417 103.207C101.854 103.655 102.537 103.879 103.465 103.879C103.988 103.879 104.425 103.836 104.777 103.751C105.14 103.655 105.412 103.564 105.593 103.479L105.801 104.727C105.62 104.823 105.3 104.924 104.841 105.031C104.393 105.138 103.881 105.191 103.305 105.191C102.58 105.191 101.95 105.084 101.417 104.871C100.894 104.647 100.462 104.343 100.121 103.959C99.7795 103.575 99.5235 103.122 99.3529 102.599C99.1929 102.066 99.1129 101.484 99.1129 100.855ZM104.825 100.039C104.836 99.367 104.665 98.8177 104.313 98.391C103.972 97.9537 103.497 97.735 102.889 97.735C102.548 97.735 102.244 97.8044 101.977 97.943C101.721 98.071 101.502 98.2417 101.321 98.455C101.14 98.6684 100.996 98.9137 100.889 99.191C100.793 99.4684 100.729 99.751 100.697 100.039H104.825ZM108.514 96.919C108.856 96.8337 109.309 96.743 109.874 96.647C110.44 96.551 111.09 96.503 111.826 96.503C112.488 96.503 113.037 96.599 113.474 96.791C113.912 96.9724 114.258 97.2337 114.514 97.575C114.781 97.9057 114.968 98.3057 115.074 98.775C115.181 99.2444 115.234 99.7617 115.234 100.327V104.999H113.746V100.647C113.746 100.135 113.709 99.6977 113.634 99.335C113.57 98.9724 113.458 98.679 113.298 98.455C113.138 98.231 112.925 98.071 112.658 97.975C112.392 97.8684 112.061 97.815 111.666 97.815C111.506 97.815 111.341 97.8204 111.17 97.831C111 97.8417 110.834 97.8577 110.674 97.879C110.525 97.8897 110.386 97.9057 110.258 97.927C110.141 97.9484 110.056 97.9644 110.002 97.975V104.999H108.514V96.919ZM119.094 96.679H122.246V97.927H119.094V101.767C119.094 102.183 119.126 102.53 119.19 102.807C119.254 103.074 119.35 103.287 119.478 103.447C119.606 103.596 119.766 103.703 119.958 103.767C120.15 103.831 120.374 103.863 120.63 103.863C121.078 103.863 121.435 103.815 121.702 103.719C121.979 103.612 122.171 103.538 122.278 103.495L122.566 104.727C122.417 104.802 122.155 104.892 121.782 104.999C121.409 105.116 120.982 105.175 120.502 105.175C119.937 105.175 119.467 105.106 119.094 104.967C118.731 104.818 118.438 104.599 118.214 104.311C117.99 104.023 117.83 103.671 117.734 103.255C117.649 102.828 117.606 102.338 117.606 101.783V94.359L119.094 94.103V96.679Z" fill="#626263"/>
<rect x="27" y="88.999" width="20" height="20" rx="10" fill="#295BB7"/>
<path d="M35.7501 100.821C35.3536 101.254 34.6711 101.254 34.2748 100.82L32.9021 99.3199C32.646 99.04 32.2053 99.0392 31.9482 99.3183C31.7204 99.5655 31.7197 99.946 31.9467 100.194L34.2744 102.739C34.6709 103.172 35.3536 103.172 35.7501 102.739L42.056 95.8456C42.2816 95.599 42.2816 95.221 42.056 94.9744C41.8002 94.6948 41.3597 94.6947 41.1038 94.9741L35.7501 100.821Z" fill="white"/>
<g filter="url(#filter2_d_624_234)">
<rect x="9" y="9" width="183" height="48" rx="10" fill="white"/>
</g>
<path d="M60.376 27.911H61.928V38.999H60.376V27.911ZM64.5769 30.919C64.9182 30.8337 65.3715 30.743 65.9369 30.647C66.5022 30.551 67.1529 30.503 67.8889 30.503C68.5502 30.503 69.0995 30.599 69.5369 30.791C69.9742 30.9724 70.3209 31.2337 70.5769 31.575C70.8435 31.9057 71.0302 32.3057 71.1369 32.775C71.2435 33.2444 71.2969 33.7617 71.2969 34.327V38.999H69.8089V34.647C69.8089 34.135 69.7715 33.6977 69.6969 33.335C69.6329 32.9724 69.5209 32.679 69.3609 32.455C69.2009 32.231 68.9875 32.071 68.7209 31.975C68.4542 31.8684 68.1235 31.815 67.7289 31.815C67.5689 31.815 67.4035 31.8204 67.2329 31.831C67.0622 31.8417 66.8969 31.8577 66.7369 31.879C66.5875 31.8897 66.4489 31.9057 66.3209 31.927C66.2035 31.9484 66.1182 31.9644 66.0649 31.975V38.999H64.5769V30.919ZM77.0124 26.583C77.4497 26.583 77.823 26.615 78.1324 26.679C78.4524 26.743 78.6764 26.8017 78.8044 26.855L78.5324 28.135C78.4044 28.071 78.223 28.0124 77.9884 27.959C77.7537 27.895 77.4657 27.863 77.1244 27.863C76.431 27.863 75.9457 28.055 75.6684 28.439C75.391 28.8124 75.2524 29.319 75.2524 29.959V30.679H78.4524V31.927H75.2524V38.999H73.7644V29.927C73.7644 28.8604 74.0257 28.039 74.5484 27.463C75.071 26.8764 75.8924 26.583 77.0124 26.583ZM87.2803 34.839C87.2803 35.5004 87.1843 36.0977 86.9923 36.631C86.8003 37.1644 86.5283 37.623 86.1763 38.007C85.8349 38.391 85.4243 38.6897 84.9443 38.903C84.4643 39.1057 83.9416 39.207 83.3763 39.207C82.8109 39.207 82.2883 39.1057 81.8083 38.903C81.3283 38.6897 80.9123 38.391 80.5603 38.007C80.2189 37.623 79.9523 37.1644 79.7603 36.631C79.5683 36.0977 79.4723 35.5004 79.4723 34.839C79.4723 34.1884 79.5683 33.5964 79.7603 33.063C79.9523 32.519 80.2189 32.055 80.5603 31.671C80.9123 31.287 81.3283 30.9937 81.8083 30.791C82.2883 30.5777 82.8109 30.471 83.3763 30.471C83.9416 30.471 84.4643 30.5777 84.9443 30.791C85.4243 30.9937 85.8349 31.287 86.1763 31.671C86.5283 32.055 86.8003 32.519 86.9923 33.063C87.1843 33.5964 87.2803 34.1884 87.2803 34.839ZM85.7283 34.839C85.7283 33.9004 85.5149 33.159 85.0883 32.615C84.6723 32.0604 84.1016 31.783 83.3763 31.783C82.6509 31.783 82.0749 32.0604 81.6483 32.615C81.2323 33.159 81.0243 33.9004 81.0243 34.839C81.0243 35.7777 81.2323 36.5244 81.6483 37.079C82.0749 37.623 82.6509 37.895 83.3763 37.895C84.1016 37.895 84.6723 37.623 85.0883 37.079C85.5149 36.5244 85.7283 35.7777 85.7283 34.839ZM92.4458 30.503C92.5738 30.503 92.7178 30.5137 92.8778 30.535C93.0484 30.5457 93.2138 30.567 93.3738 30.599C93.5338 30.6204 93.6778 30.647 93.8058 30.679C93.9444 30.7004 94.0458 30.7217 94.1098 30.743L93.8538 32.039C93.7364 31.9964 93.5391 31.9484 93.2618 31.895C92.9951 31.831 92.6484 31.799 92.2218 31.799C91.9444 31.799 91.6671 31.831 91.3898 31.895C91.1231 31.9484 90.9471 31.9857 90.8618 32.007V38.999H89.3738V31.031C89.7258 30.903 90.1631 30.7857 90.6858 30.679C91.2084 30.5617 91.7951 30.503 92.4458 30.503ZM95.5456 30.919C95.887 30.8337 96.335 30.743 96.8896 30.647C97.455 30.551 98.1056 30.503 98.8416 30.503C99.375 30.503 99.823 30.5777 100.186 30.727C100.548 30.8657 100.852 31.0737 101.098 31.351C101.172 31.2977 101.29 31.223 101.45 31.127C101.61 31.031 101.807 30.9404 102.042 30.855C102.276 30.759 102.538 30.679 102.826 30.615C103.114 30.5404 103.423 30.503 103.754 30.503C104.394 30.503 104.916 30.599 105.322 30.791C105.727 30.9724 106.042 31.2337 106.266 31.575C106.5 31.9164 106.655 32.3217 106.73 32.791C106.815 33.2604 106.858 33.7724 106.858 34.327V38.999H105.37V34.647C105.37 34.1564 105.343 33.735 105.29 33.383C105.247 33.031 105.156 32.7377 105.018 32.503C104.89 32.2684 104.708 32.0977 104.474 31.991C104.25 31.8737 103.956 31.815 103.594 31.815C103.092 31.815 102.676 31.8844 102.346 32.023C102.026 32.151 101.807 32.2684 101.69 32.375C101.775 32.6524 101.839 32.9564 101.882 33.287C101.924 33.6177 101.946 33.9644 101.946 34.327V38.999H100.458V34.647C100.458 34.1564 100.431 33.735 100.378 33.383C100.324 33.031 100.228 32.7377 100.09 32.503C99.9616 32.2684 99.7803 32.0977 99.5456 31.991C99.3216 31.8737 99.0336 31.815 98.6816 31.815C98.5323 31.815 98.3723 31.8204 98.2016 31.831C98.031 31.8417 97.8656 31.8577 97.7056 31.879C97.5563 31.8897 97.4176 31.9057 97.2896 31.927C97.1616 31.9484 97.0763 31.9644 97.0336 31.975V38.999H95.5456V30.919ZM112.143 37.927C112.495 37.927 112.804 37.9217 113.071 37.911C113.348 37.8897 113.578 37.8577 113.759 37.815V35.335C113.652 35.2817 113.476 35.239 113.231 35.207C112.996 35.1644 112.708 35.143 112.367 35.143C112.143 35.143 111.903 35.159 111.647 35.191C111.402 35.223 111.172 35.2924 110.959 35.399C110.756 35.495 110.586 35.6337 110.447 35.815C110.308 35.9857 110.239 36.215 110.239 36.503C110.239 37.0364 110.41 37.4097 110.751 37.623C111.092 37.8257 111.556 37.927 112.143 37.927ZM112.015 30.471C112.612 30.471 113.114 30.551 113.519 30.711C113.935 30.8604 114.266 31.079 114.511 31.367C114.767 31.6444 114.948 31.9804 115.055 32.375C115.162 32.759 115.215 33.1857 115.215 33.655V38.855C115.087 38.8764 114.906 38.9084 114.671 38.951C114.447 38.983 114.191 39.015 113.903 39.047C113.615 39.079 113.3 39.1057 112.959 39.127C112.628 39.159 112.298 39.175 111.967 39.175C111.498 39.175 111.066 39.127 110.671 39.031C110.276 38.935 109.935 38.7857 109.647 38.583C109.359 38.3697 109.135 38.0924 108.975 37.751C108.815 37.4097 108.735 36.999 108.735 36.519C108.735 36.0604 108.826 35.6657 109.007 35.335C109.199 35.0044 109.455 34.7377 109.775 34.535C110.095 34.3324 110.468 34.183 110.895 34.087C111.322 33.991 111.77 33.943 112.239 33.943C112.388 33.943 112.543 33.9537 112.703 33.975C112.863 33.9857 113.012 34.007 113.151 34.039C113.3 34.0604 113.428 34.0817 113.535 34.103C113.642 34.1244 113.716 34.1404 113.759 34.151V33.735C113.759 33.4897 113.732 33.2497 113.679 33.015C113.626 32.7697 113.53 32.5564 113.391 32.375C113.252 32.183 113.06 32.0337 112.815 31.927C112.58 31.8097 112.271 31.751 111.887 31.751C111.396 31.751 110.964 31.7884 110.591 31.863C110.228 31.927 109.956 31.9964 109.775 32.071L109.599 30.839C109.791 30.7537 110.111 30.6737 110.559 30.599C111.007 30.5137 111.492 30.471 112.015 30.471ZM119.078 30.679H122.23V31.927H119.078V35.767C119.078 36.183 119.11 36.5297 119.174 36.807C119.238 37.0737 119.334 37.287 119.462 37.447C119.59 37.5964 119.75 37.703 119.942 37.767C120.134 37.831 120.358 37.863 120.614 37.863C121.062 37.863 121.42 37.815 121.686 37.719C121.964 37.6124 122.156 37.5377 122.262 37.495L122.55 38.727C122.401 38.8017 122.14 38.8924 121.766 38.999C121.393 39.1164 120.966 39.175 120.486 39.175C119.921 39.175 119.452 39.1057 119.078 38.967C118.716 38.8177 118.422 38.599 118.198 38.311C117.974 38.023 117.814 37.671 117.718 37.255C117.633 36.8284 117.59 36.3377 117.59 35.783V28.359L119.078 28.103V30.679ZM125.612 38.999H124.124V30.679H125.612V38.999ZM124.86 29.175C124.593 29.175 124.364 29.0897 124.172 28.919C123.99 28.7377 123.9 28.4977 123.9 28.199C123.9 27.9004 123.99 27.6657 124.172 27.495C124.364 27.3137 124.593 27.223 124.86 27.223C125.126 27.223 125.35 27.3137 125.532 27.495C125.724 27.6657 125.82 27.9004 125.82 28.199C125.82 28.4977 125.724 28.7377 125.532 28.919C125.35 29.0897 125.126 29.175 124.86 29.175ZM135.515 34.839C135.515 35.5004 135.419 36.0977 135.227 36.631C135.035 37.1644 134.763 37.623 134.411 38.007C134.069 38.391 133.659 38.6897 133.179 38.903C132.699 39.1057 132.176 39.207 131.611 39.207C131.045 39.207 130.523 39.1057 130.043 38.903C129.563 38.6897 129.147 38.391 128.795 38.007C128.453 37.623 128.187 37.1644 127.995 36.631C127.803 36.0977 127.707 35.5004 127.707 34.839C127.707 34.1884 127.803 33.5964 127.995 33.063C128.187 32.519 128.453 32.055 128.795 31.671C129.147 31.287 129.563 30.9937 130.043 30.791C130.523 30.5777 131.045 30.471 131.611 30.471C132.176 30.471 132.699 30.5777 133.179 30.791C133.659 30.9937 134.069 31.287 134.411 31.671C134.763 32.055 135.035 32.519 135.227 33.063C135.419 33.5964 135.515 34.1884 135.515 34.839ZM133.963 34.839C133.963 33.9004 133.749 33.159 133.323 32.615C132.907 32.0604 132.336 31.783 131.611 31.783C130.885 31.783 130.309 32.0604 129.883 32.615C129.467 33.159 129.259 33.9004 129.259 34.839C129.259 35.7777 129.467 36.5244 129.883 37.079C130.309 37.623 130.885 37.895 131.611 37.895C132.336 37.895 132.907 37.623 133.323 37.079C133.749 36.5244 133.963 35.7777 133.963 34.839ZM137.608 30.919C137.949 30.8337 138.403 30.743 138.968 30.647C139.533 30.551 140.184 30.503 140.92 30.503C141.581 30.503 142.131 30.599 142.568 30.791C143.005 30.9724 143.352 31.2337 143.608 31.575C143.875 31.9057 144.061 32.3057 144.168 32.775C144.275 33.2444 144.328 33.7617 144.328 34.327V38.999H142.84V34.647C142.84 34.135 142.803 33.6977 142.728 33.335C142.664 32.9724 142.552 32.679 142.392 32.455C142.232 32.231 142.019 32.071 141.752 31.975C141.485 31.8684 141.155 31.815 140.76 31.815C140.6 31.815 140.435 31.8204 140.264 31.831C140.093 31.8417 139.928 31.8577 139.768 31.879C139.619 31.8897 139.48 31.9057 139.352 31.927C139.235 31.9484 139.149 31.9644 139.096 31.975V38.999H137.608V30.919Z" fill="#626263"/>
<rect x="27" y="22.999" width="20" height="20" rx="10" fill="#295BB7"/>
<path d="M35.7501 34.8207C35.3536 35.2537 34.6711 35.2536 34.2748 34.8204L32.9021 33.3199C32.646 33.04 32.2053 33.0392 31.9482 33.3183C31.7204 33.5655 31.7197 33.946 31.9467 34.194L34.2744 36.7385C34.6709 37.1718 35.3536 37.1718 35.7501 36.7385L42.056 29.8456C42.2816 29.599 42.2816 29.221 42.056 28.9744C41.8002 28.6948 41.3597 28.6947 41.1038 28.9741L35.7501 34.8207Z" fill="white"/>
<defs>
<filter id="filter0_d_624_234" x="0" y="132" width="201" height="66" filterUnits="userSpaceOnUse" color-interpolation-filters="sRGB">
<feFlood flood-opacity="0" result="BackgroundImageFix"/>
<feColorMatrix in="SourceAlpha" type="matrix" values="0 0 0 0 0 0 0 0 0 0 0 0 0 0 0 0 0 0 127 0" result="hardAlpha"/>
<feOffset/>
<feGaussianBlur stdDeviation="4.5"/>
<feComposite in2="hardAlpha" operator="out"/>
<feColorMatrix type="matrix" values="0 0 0 0 0 0 0 0 0 0 0 0 0 0 0 0 0 0 0.05 0"/>
<feBlend mode="normal" in2="BackgroundImageFix" result="effect1_dropShadow_624_234"/>
<feBlend mode="normal" in="SourceGraphic" in2="effect1_dropShadow_624_234" result="shape"/>
</filter>
<filter id="filter1_d_624_234" x="0" y="66" width="201" height="66" filterUnits="userSpaceOnUse" color-interpolation-filters="sRGB">
<feFlood flood-opacity="0" result="BackgroundImageFix"/>
<feColorMatrix in="SourceAlpha" type="matrix" values="0 0 0 0 0 0 0 0 0 0 0 0 0 0 0 0 0 0 127 0" result="hardAlpha"/>
<feOffset/>
<feGaussianBlur stdDeviation="4.5"/>
<feComposite in2="hardAlpha" operator="out"/>
<feColorMatrix type="matrix" values="0 0 0 0 0 0 0 0 0 0 0 0 0 0 0 0 0 0 0.05 0"/>
<feBlend mode="normal" in2="BackgroundImageFix" result="effect1_dropShadow_624_234"/>
<feBlend mode="normal" in="SourceGraphic" in2="effect1_dropShadow_624_234" result="shape"/>
</filter>
<filter id="filter2_d_624_234" x="0" y="0" width="201" height="66" filterUnits="userSpaceOnUse" color-interpolation-filters="sRGB">
<feFlood flood-opacity="0" result="BackgroundImageFix"/>
<feColorMatrix in="SourceAlpha" type="matrix" values="0 0 0 0 0 0 0 0 0 0 0 0 0 0 0 0 0 0 127 0" result="hardAlpha"/>
<feOffset/>
<feGaussianBlur stdDeviation="4.5"/>
<feComposite in2="hardAlpha" operator="out"/>
<feColorMatrix type="matrix" values="0 0 0 0 0 0 0 0 0 0 0 0 0 0 0 0 0 0 0.05 0"/>
<feBlend mode="normal" in2="BackgroundImageFix" result="effect1_dropShadow_624_234"/>
<feBlend mode="normal" in="SourceGraphic" in2="effect1_dropShadow_624_234" result="shape"/>
</filter>
</defs>
</svg>
