<svg width="16" height="16" viewBox="0 0 16 16" fill="none" xmlns="http://www.w3.org/2000/svg">
<path d="M4.44444 5.33333C4.6963 5.33333 4.90756 5.248 5.07822 5.07733C5.2483 4.90726 5.33333 4.6963 5.33333 4.44444C5.33333 4.19259 5.2483 3.98133 5.07822 3.81067C4.90756 3.64059 4.6963 3.55556 4.44444 3.55556C4.19259 3.55556 3.98133 3.64059 3.81067 3.81067C3.64059 3.98133 3.55556 4.19259 3.55556 4.44444C3.55556 4.6963 3.64059 4.90726 3.81067 5.07733C3.98133 5.248 4.19259 5.33333 4.44444 5.33333ZM4.44444 8.88889C4.6963 8.88889 4.90756 8.80356 5.07822 8.63289C5.2483 8.46281 5.33333 8.25185 5.33333 8C5.33333 7.74815 5.2483 7.53689 5.07822 7.36622C4.90756 7.19615 4.6963 7.11111 4.44444 7.11111C4.19259 7.11111 3.98133 7.19615 3.81067 7.36622C3.64059 7.53689 3.55556 7.74815 3.55556 8C3.55556 8.25185 3.64059 8.46281 3.81067 8.63289C3.98133 8.80356 4.19259 8.88889 4.44444 8.88889ZM4.44444 12.4444C4.6963 12.4444 4.90756 12.3591 5.07822 12.1884C5.2483 12.0184 5.33333 11.8074 5.33333 11.5556C5.33333 11.3037 5.2483 11.0924 5.07822 10.9218C4.90756 10.7517 4.6963 10.6667 4.44444 10.6667C4.19259 10.6667 3.98133 10.7517 3.81067 10.9218C3.64059 11.0924 3.55556 11.3037 3.55556 11.5556C3.55556 11.8074 3.64059 12.0184 3.81067 12.1884C3.98133 12.3591 4.19259 12.4444 4.44444 12.4444ZM1.77778 16C1.28889 16 0.870222 15.8261 0.521778 15.4782C0.173926 15.1298 0 14.7111 0 14.2222V1.77778C0 1.28889 0.173926 0.870222 0.521778 0.521778C0.870222 0.173926 1.28889 0 1.77778 0H11.5556L16 4.44444V14.2222C16 14.7111 15.8261 15.1298 15.4782 15.4782C15.1298 15.8261 14.7111 16 14.2222 16H1.77778ZM1.77778 14.2222H14.2222V5.33333H10.6667V1.77778H1.77778V14.2222Z" fill="white"/>
</svg>
