<svg width="60" height="60" viewBox="0 0 60 60" fill="none" xmlns="http://www.w3.org/2000/svg">
<path d="M60 30C60 46.5685 46.5685 60 30 60C13.4315 60 0 46.5685 0 30C0 13.4315 13.4315 0 30 0C46.5685 0 60 13.4315 60 30Z" fill="#E65C4F"/>
<path d="M28.7217 40.3337V38.1115H37.6106V30.2226C37.6106 29.1485 37.4069 28.1392 36.9995 27.1948C36.5921 26.2503 36.0365 25.4263 35.3328 24.7226C34.6291 24.0189 33.805 23.4633 32.8606 23.0559C31.9161 22.6485 30.9069 22.4448 29.8328 22.4448C28.7587 22.4448 27.7495 22.6485 26.805 23.0559C25.8606 23.4633 25.0365 24.0189 24.3328 24.7226C23.6291 25.4263 23.0735 26.2503 22.6661 27.1948C22.2587 28.1392 22.055 29.1485 22.055 30.2226V37.0003H20.9439C20.3328 37.0003 19.8098 36.7829 19.375 36.3481C18.9395 35.9126 18.7217 35.3892 18.7217 34.7781V32.5559C18.7217 32.13 18.8235 31.7548 19.0272 31.4303C19.2309 31.1066 19.4995 30.8429 19.8328 30.6392L19.9161 29.167C20.0828 27.8152 20.4672 26.5929 21.0695 25.5003C21.6709 24.4078 22.4209 23.4818 23.3195 22.7226C24.2172 21.9633 25.2265 21.3752 26.3472 20.9581C27.4672 20.5418 28.6291 20.3337 29.8328 20.3337C31.055 20.3337 32.2265 20.5418 33.3472 20.9581C34.4672 21.3752 35.4717 21.9678 36.3606 22.7359C37.2495 23.5048 37.995 24.4307 38.5972 25.5137C39.1987 26.5974 39.5828 27.8059 39.7495 29.1392L39.8328 30.5837C40.1661 30.7503 40.4346 30.9955 40.6384 31.3192C40.8421 31.6437 40.9439 32.0003 40.9439 32.3892V34.9448C40.9439 35.3522 40.8421 35.7133 40.6384 36.0281C40.4346 36.3429 40.1661 36.5837 39.8328 36.7503V38.1115C39.8328 38.7226 39.6154 39.2459 39.1806 39.6815C38.745 40.1163 38.2217 40.3337 37.6106 40.3337H28.7217ZM26.4995 32.5559C26.1846 32.5559 25.9209 32.4492 25.7083 32.2359C25.495 32.0233 25.3883 31.7596 25.3883 31.4448C25.3883 31.13 25.495 30.8659 25.7083 30.6526C25.9209 30.44 26.1846 30.3337 26.4995 30.3337C26.8143 30.3337 27.0783 30.44 27.2917 30.6526C27.5043 30.8659 27.6106 31.13 27.6106 31.4448C27.6106 31.7596 27.5043 32.0233 27.2917 32.2359C27.0783 32.4492 26.8143 32.5559 26.4995 32.5559ZM33.1661 32.5559C32.8513 32.5559 32.5876 32.4492 32.375 32.2359C32.1617 32.0233 32.055 31.7596 32.055 31.4448C32.055 31.13 32.1617 30.8659 32.375 30.6526C32.5876 30.44 32.8513 30.3337 33.1661 30.3337C33.4809 30.3337 33.745 30.44 33.9584 30.6526C34.1709 30.8659 34.2772 31.13 34.2772 31.4448C34.2772 31.7596 34.1709 32.0233 33.9584 32.2359C33.745 32.4492 33.4809 32.5559 33.1661 32.5559ZM23.1939 30.8337C23.1198 29.7411 23.2728 28.7503 23.6528 27.8615C24.0321 26.9726 24.5409 26.2178 25.1795 25.597C25.8187 24.977 26.555 24.5003 27.3883 24.167C28.2217 23.8337 29.055 23.667 29.8883 23.667C31.5735 23.667 33.0321 24.1996 34.2639 25.2648C35.495 26.3292 36.2402 27.6578 36.4995 29.2503C34.7587 29.2318 33.1846 28.7641 31.7772 27.847C30.3698 26.9307 29.305 25.7411 28.5828 24.2781C28.2865 25.7781 27.6617 27.1066 26.7083 28.2637C25.7543 29.4215 24.5828 30.2781 23.1939 30.8337Z" fill="white"/>
</svg>
