<svg width="286" height="38" viewBox="0 0 286 38" fill="none" xmlns="http://www.w3.org/2000/svg">
<g filter="url(#filter0_d_446_3310)">
<path fill-rule="evenodd" clip-rule="evenodd" d="M280.5 17.5982C282.5 16.4435 282.5 13.5567 280.5 12.402L261 1.1437C259 -0.0109971 256.5 1.43238 256.5 3.74178V26.2584C256.5 28.5678 259 30.0112 261 28.8565L280.5 17.5982ZM28 12.4021C30 13.5568 30 16.4436 28 17.5983L8.5 28.8566C6.5 30.0113 4 28.568 4 26.2586V3.74189C4 1.43249 6.5 -0.0108855 8.5 1.14382L28 12.4021ZM91.5 12.4021C93.5 13.5568 93.5 16.4436 91.5 17.5983L72 28.8566C70 30.0113 67.5 28.568 67.5 26.2586V3.74189C67.5 1.43249 70 -0.0108855 72 1.14382L91.5 12.4021ZM154.5 17.5983C156.5 16.4436 156.5 13.5568 154.5 12.4021L135 1.14382C133 -0.0108855 130.5 1.43249 130.5 3.74189V26.2586C130.5 28.568 133 30.0113 135 28.8566L154.5 17.5983ZM217.5 12.4021C219.5 13.5568 219.5 16.4436 217.5 17.5983L198 28.8566C196 30.0113 193.5 28.568 193.5 26.2586V3.74189C193.5 1.43249 196 -0.0108855 198 1.14382L217.5 12.4021Z" fill="#F8BD4F"/>
</g>
<defs>
<filter id="filter0_d_446_3310" x="0" y="0.737305" width="286" height="36.5259" filterUnits="userSpaceOnUse" color-interpolation-filters="sRGB">
<feFlood flood-opacity="0" result="BackgroundImageFix"/>
<feColorMatrix in="SourceAlpha" type="matrix" values="0 0 0 0 0 0 0 0 0 0 0 0 0 0 0 0 0 0 127 0" result="hardAlpha"/>
<feOffset dy="4"/>
<feGaussianBlur stdDeviation="2"/>
<feComposite in2="hardAlpha" operator="out"/>
<feColorMatrix type="matrix" values="0 0 0 0 0.843137 0 0 0 0 0.882353 0 0 0 0 0.952941 0 0 0 0.25 0"/>
<feBlend mode="normal" in2="BackgroundImageFix" result="effect1_dropShadow_446_3310"/>
<feBlend mode="normal" in="SourceGraphic" in2="effect1_dropShadow_446_3310" result="shape"/>
</filter>
</defs>
</svg>
