<svg width="94" height="18" viewBox="0 0 94 18" fill="none" xmlns="http://www.w3.org/2000/svg">
<path d="M7.76047 0.0683699C6.78266 0.19591 5.24155 0.727326 4.45506 1.19497C2.42504 2.39598 1.04336 4.13902 0.299376 6.43474C0.0336673 7.25313 0.00178226 7.49758 0.00178226 8.9324C-0.00884607 10.2928 0.0230389 10.6542 0.235606 11.3663C0.522571 12.3547 1.07524 13.5132 1.59603 14.2253L1.96802 14.7355L4.11495 11.6745C5.29469 9.99524 6.97397 7.67826 7.83487 6.54103C8.69576 5.40379 9.3866 4.42599 9.36535 4.36222C9.34409 4.30908 8.9721 4.03274 8.53634 3.76703C7.94115 3.39504 7.73921 3.21436 7.71795 3.01242C7.6967 2.86362 7.74984 2.69357 7.83487 2.6298C8.08995 2.4066 9.50352 2.26844 12.1606 2.20467L14.7645 2.13027L14.2331 1.72639C12.5432 0.461618 9.89676 -0.229223 7.76047 0.0683699Z" fill="#969292"/>
<path d="M51.5915 1.49304C49.1895 2.16262 47.5847 3.86315 46.7344 6.61589C46.4793 7.45553 46.4474 7.72124 46.4474 9.19858C46.4368 11.1223 46.6281 12.0363 47.3721 13.5562C47.7228 14.2789 47.9885 14.6403 48.7219 15.363C49.2214 15.8625 49.8698 16.4046 50.178 16.564C51.8679 17.4568 54.6313 17.5099 56.1936 16.6703L56.7463 16.3727L56.7782 15.0016L56.8101 13.6306L56.4062 13.9813C55.8004 14.5234 55.1627 14.7572 54.1849 14.8103C52.6756 14.8954 51.5597 14.3639 50.6137 13.1098C49.7316 11.9619 49.3171 10.6865 49.3277 9.14544C49.3383 6.87097 50.4331 4.84096 52.0911 4.02258C52.6544 3.74624 52.8032 3.72499 53.8766 3.72499C55.1839 3.72499 55.5665 3.85253 56.3743 4.59651L56.7994 4.9685V3.62933V2.29016L56.4593 2.07759C56.268 1.96068 55.8004 1.75874 55.4178 1.64183C54.4931 1.33361 52.4418 1.25921 51.5915 1.49304Z" fill="#969292"/>
<path d="M22.9587 1.705C22.3635 1.91756 21.8215 2.39584 21.5133 2.99102L21.2475 3.50118L21.2157 8.44336C21.1838 13.8851 21.205 14.0445 21.8534 15.0754C23.7239 18.0089 28.8787 18.0089 30.7386 15.0754C31.3976 14.0339 31.3976 14.002 31.3976 7.47618V1.54557H31.0575C30.558 1.54557 29.6864 1.98133 29.3357 2.40647C28.6767 3.18233 28.6874 3.05479 28.6342 8.5709L28.5811 13.63L28.2941 14.0551C27.4651 15.3093 25.3395 15.2774 24.436 13.9914L24.1172 13.5343L24.0853 7.53995L24.0641 1.54557H23.7133C23.5326 1.5562 23.1925 1.61997 22.9587 1.705Z" fill="#969292"/>
<path d="M43.2486 1.74962C42.6747 2.10036 42.5046 2.37669 42.5046 2.92937C42.5046 3.3545 42.5578 3.5033 42.8235 3.77963C43.6525 4.64053 45.1086 4.35356 45.4381 3.24822C45.7782 2.13224 44.2796 1.10129 43.2486 1.74962Z" fill="#969292"/>
<path d="M81.7551 1.65269C81.043 1.86526 80.4371 2.42856 80.0864 3.1938C79.9908 3.38511 79.9164 4.03344 79.8845 4.79868L79.842 6.08471L78.8535 6.03157C77.1849 5.94654 75.9414 6.40356 74.9742 7.46639C73.9857 8.55048 73.55 9.83651 73.55 11.7496C73.5394 13.7265 73.9964 15.0444 75.0167 15.9797C76.2071 17.0532 77.2486 17.3295 79.8101 17.2338C80.8091 17.1913 81.8295 17.1276 82.0952 17.085L82.5734 17.0106L82.6053 9.27321L82.6266 1.54641L82.3396 1.55704C82.1696 1.55704 81.9145 1.59955 81.7551 1.65269ZM79.842 11.5477L79.8632 15.3314L79.3318 15.4058C77.9076 15.5971 76.9192 14.97 76.5153 13.6202C76.1539 12.4192 76.2283 10.2935 76.6641 9.26258C77.1424 8.16786 77.8757 7.70022 79.0661 7.74273L79.8101 7.76399L79.842 11.5477Z" fill="#969292"/>
<path d="M84.5497 1.72814C83.5401 2.22767 83.5507 3.64124 84.571 4.10889C85.3681 4.47025 86.1759 4.27894 86.5585 3.65187C87.3131 2.40835 85.9102 1.05855 84.5497 1.72814Z" fill="#969292"/>
<path d="M90.215 1.80256C89.184 2.28084 88.6845 3.23739 88.6845 4.7041V5.47997H88.0999H87.5154V6.64909V7.8182H88.0999H88.6845V11.3574C88.6845 15.4812 88.727 15.7682 89.471 16.4909C90.1937 17.1818 91.7455 17.4794 92.8402 17.1499L93.2547 17.033V15.8851V14.7479L92.6489 14.801C92.1387 14.8435 91.9899 14.8223 91.7667 14.6416L91.501 14.429L91.4691 11.1236L91.4372 7.8182H92.3406H93.2547V6.64909V5.47997H92.3513H91.4479V3.51373V1.54748H91.1078C90.9164 1.54748 90.5126 1.6644 90.215 1.80256Z" fill="#969292"/>
<path d="M16.9431 3.25838C16.9431 3.57723 16.8156 3.74728 15.9016 4.62943C11.8841 8.53003 3.02003 15.7892 1.90406 16.0868L1.58521 16.1718L1.92531 16.5119C2.2973 16.8839 2.42484 16.8839 2.98815 16.4694C3.16883 16.3312 3.36014 16.2143 3.41328 16.2143C3.45579 16.2143 3.78527 16.4163 4.13601 16.6394C5.54957 17.5854 7.46267 18.0849 9.33326 17.9892C11.7671 17.8723 13.7546 16.9689 15.4127 15.2365C17.0813 13.5041 17.8997 11.4209 17.8997 8.96579C17.8997 7.70102 17.7296 6.80824 17.2726 5.63912L16.9538 4.81011L17.1557 4.5444C17.432 4.19367 17.432 3.52409 17.1557 3.17335L16.9431 2.89701V3.25838Z" fill="#969292"/>
<path d="M36.0213 5.60604C34.9372 5.68044 33.8106 5.90364 33.0347 6.1906L32.5139 6.39254V11.7492V17.1165H33.8956H35.2773L35.3092 12.3657L35.3304 7.6148L35.9362 7.49789C37.0097 7.27469 37.9981 7.51914 38.3808 8.1037C38.5508 8.35878 38.5827 8.78392 38.6252 11.8024C38.6784 15.0334 38.689 15.2247 38.9122 15.6286C39.3479 16.4469 40.0388 16.9358 40.9953 17.1059L41.3886 17.1803V12.727C41.3886 9.00711 41.3567 8.18873 41.2292 7.80611C40.634 6.13746 38.8697 5.39348 36.0213 5.60604Z" fill="#969292"/>
<path d="M42.6106 5.60682C42.5787 5.68122 42.5681 8.30642 42.5787 11.4311L42.6106 17.1173L43.0251 17.0854C43.9072 17.011 44.7044 16.4477 45.1295 15.5975L45.3739 15.0979V10.3152V5.53242L44.0135 5.50054C42.9932 5.47928 42.6425 5.51117 42.6106 5.60682Z" fill="#969292"/>
<path d="M60.6792 5.60689C59.7652 5.67066 58.5642 5.97888 57.9477 6.2871L57.6501 6.44653V11.8138V17.1918L58.1072 17.1174C58.7024 17.0217 59.5314 16.5647 59.8396 16.1608C60.4029 15.4168 60.4135 15.3212 60.4135 11.3887V7.73255L60.743 7.61564C61.285 7.42433 62.3372 7.46685 62.7836 7.70067L63.1875 7.90261L63.1556 6.776L63.1237 5.63877L62.3798 5.58563C61.9759 5.55375 61.2106 5.56437 60.6792 5.60689Z" fill="#969292"/>
<path d="M67.4276 5.59556C64.7493 5.88252 63.1763 8.01882 63.1763 11.3774C63.1763 13.3968 63.6545 14.7678 64.7386 15.8519C65.7908 16.9147 67.1619 17.3505 69.1069 17.2442C70.276 17.1804 71.1581 16.9998 71.9659 16.6384L72.4229 16.4365V15.3205C72.4229 14.704 72.4017 14.1939 72.3698 14.1939C72.3485 14.1939 72.019 14.3639 71.6471 14.5659C70.4779 15.2036 68.8731 15.4268 67.7571 15.0867C67.0344 14.8741 66.4604 14.3002 66.1628 13.5137C65.7271 12.3552 65.4826 12.4827 69.16 11.9726C70.9243 11.7281 72.4548 11.5368 72.5611 11.5368C72.7205 11.5368 72.7418 11.4305 72.7418 10.7609C72.7311 7.30672 70.6161 5.24482 67.4276 5.59556ZM69.0856 7.59369C69.3301 7.69997 69.6489 7.96568 69.8083 8.16762C70.1166 8.57149 70.4035 9.66621 70.2441 9.81501C70.1591 9.88941 66.1416 10.4846 65.7908 10.474C65.7377 10.474 65.7377 10.1764 65.7696 9.80438C65.8546 9.11354 66.1416 8.33767 66.4498 7.98693C66.96 7.413 68.2566 7.22169 69.0856 7.59369Z" fill="#969292"/>
<path d="M83.9761 5.55243C83.8592 5.65871 83.8911 17.0417 83.9974 17.1054C84.1993 17.233 85.1984 16.9248 85.6341 16.5953C85.8786 16.4146 86.1974 16.0107 86.3675 15.6919L86.6651 15.1286V10.3033V5.47803H85.3578C84.6351 5.47803 84.008 5.50992 83.9761 5.55243Z" fill="#969292"/>
</svg>
