<svg width="60" height="60" viewBox="0 0 60 60" fill="none" xmlns="http://www.w3.org/2000/svg">
<path d="M60 30C60 46.5685 46.5685 60 30 60C13.4315 60 0 46.5685 0 30C0 13.4315 13.4315 0 30 0C46.5685 0 60 13.4315 60 30Z" fill="#F8C86F"/>
<path d="M35.2779 31.9995C35.7594 31.9995 36.1576 31.8421 36.4724 31.5273C36.7872 31.2125 36.9446 30.8143 36.9446 30.3328C36.9446 29.8513 36.7872 29.4532 36.4724 29.1384C36.1576 28.8236 35.7594 28.6662 35.2779 28.6662C34.7965 28.6662 34.3983 28.8236 34.0835 29.1384C33.7687 29.4532 33.6113 29.8513 33.6113 30.3328C33.6113 30.8143 33.7687 31.2125 34.0835 31.5273C34.3983 31.8421 34.7965 31.9995 35.2779 31.9995ZM23.0557 40.3328C22.4446 40.3328 21.9213 40.1154 21.4857 39.6806C21.0509 39.245 20.8335 38.7217 20.8335 38.1106V22.555C20.8335 21.9439 21.0509 21.4206 21.4857 20.985C21.9213 20.5502 22.4446 20.3328 23.0557 20.3328H38.6113C39.2224 20.3328 39.7457 20.5502 40.1813 20.985C40.6161 21.4206 40.8335 21.9439 40.8335 22.555V25.3328H38.6113V22.555H23.0557V38.1106H38.6113V35.3328H40.8335V38.1106C40.8335 38.7217 40.6161 39.245 40.1813 39.6806C39.7457 40.1154 39.2224 40.3328 38.6113 40.3328H23.0557ZM31.9446 35.8884C31.3335 35.8884 30.8105 35.671 30.3757 35.2362C29.9402 34.8006 29.7224 34.2773 29.7224 33.6662V26.9995C29.7224 26.3884 29.9402 25.865 30.3757 25.4295C30.8105 24.9947 31.3335 24.7773 31.9446 24.7773H39.7224C40.3335 24.7773 40.8568 24.9947 41.2924 25.4295C41.7272 25.865 41.9446 26.3884 41.9446 26.9995V33.6662C41.9446 34.2773 41.7272 34.8006 41.2924 35.2362C40.8568 35.671 40.3335 35.8884 39.7224 35.8884H31.9446ZM39.7224 33.6662V26.9995H31.9446V33.6662H39.7224Z" fill="white"/>
</svg>
